<?xml version="1.0" encoding="UTF-8" standalone="no"?>
<!-- Created with Inkscape (http://www.inkscape.org/) -->

<svg
   xmlns:dc="http://purl.org/dc/elements/1.1/"
   xmlns:cc="http://creativecommons.org/ns#"
   xmlns:rdf="http://www.w3.org/1999/02/22-rdf-syntax-ns#"
   xmlns:svg="http://www.w3.org/2000/svg"
   xmlns="http://www.w3.org/2000/svg"
   xmlns:sodipodi="http://sodipodi.sourceforge.net/DTD/sodipodi-0.dtd"
   xmlns:inkscape="http://www.inkscape.org/namespaces/inkscape"
   width="2120"
   height="1192"
   id="svg2"
   version="1.1"
   inkscape:version="0.48.4 r9939"
   sodipodi:docname="GDG Vector.svg">
  <defs
     id="defs4">
    <clipPath
       clipPathUnits="userSpaceOnUse"
       id="clipPath3044">
      <path
         style="fill:#f0f0f0;fill-opacity:1;stroke:none"
         d="m 126.30412,117.4197 372.07535,0 c 0.79102,0.0462 1.59788,-0.0474 2.26864,1.06119 l 26.10754,41.87029 c 2.37659,4.02339 3.30942,7.80616 1.45338,11.12411 l -25.03425,41.75348 c -6e-5,-1.1e-4 -2.06761,3.14211 -4.7993,3.16362 l -372.07535,0 z"
         id="path3046"
         inkscape:connector-curvature="0"
         sodipodi:nodetypes="ccccccccc" />
    </clipPath>
  </defs>
  <sodipodi:namedview
     id="base"
     pagecolor="#ffffff"
     bordercolor="#666666"
     borderopacity="1.0"
     inkscape:pageopacity="0.0"
     inkscape:pageshadow="2"
     inkscape:zoom="0.3535534"
     inkscape:cx="980.18711"
     inkscape:cy="574.43207"
     inkscape:document-units="px"
     inkscape:current-layer="layer2"
     showgrid="false"
     inkscape:snap-global="false"
     inkscape:object-paths="true"
     inkscape:object-nodes="true"
     inkscape:snap-smooth-nodes="true"
     inkscape:snap-nodes="true"
     inkscape:window-width="1366"
     inkscape:window-height="705"
     inkscape:window-x="-8"
     inkscape:window-y="1072"
     inkscape:window-maximized="1"
     fit-margin-top="0"
     fit-margin-left="0"
     fit-margin-right="0"
     fit-margin-bottom="0" />
  <metadata
     id="metadata7">
    <rdf:RDF>
      <cc:Work
         rdf:about="">
        <dc:format>image/svg+xml</dc:format>
        <dc:type
           rdf:resource="http://purl.org/dc/dcmitype/StillImage" />
        <dc:title />
      </cc:Work>
    </rdf:RDF>
  </metadata>
  <g
     inkscape:label="Capa 1"
     inkscape:groupmode="layer"
     id="layer1"
     transform="translate(695.96875,59.34375)" />
  <g
     inkscape:groupmode="layer"
     id="layer2"
     inkscape:label="Mundo"
     style="display:inline"
     transform="translate(695.96875,59.34375)">
    <rect
       style="fill:#4d4d4d;fill-opacity:1;fill-rule:nonzero;stroke:#000000;stroke-width:1.89960456;stroke-linecap:butt;stroke-linejoin:miter;stroke-miterlimit:4;stroke-opacity:1;stroke-dasharray:none"
       id="rect3095"
       width="2118.1003"
       height="1190.1003"
       x="-695.03436"
       y="-58.409458" />
    <g
       id="g3081"
       transform="matrix(4.2367018,0,0,4.2367018,-2872.9393,-475.04632)">
      <path
         sodipodi:nodetypes="ccccccccc"
         inkscape:connector-curvature="0"
         id="path3830"
         d="m 553.78019,189.30195 415.29312,0 c 0.8829,0.0462 1.7834,-0.0474 2.5321,1.06119 l 29.13999,41.87029 c 2.6527,4.02339 3.6939,7.80616 1.6222,11.12411 l -27.94199,41.75348 c -2e-4,-1.1e-4 -2.3077,3.14211 -5.3568,3.16362 l -415.29307,0 z"
         style="fill:#f0f0f0;fill-opacity:1;stroke:none" />
      <g
         transform="translate(401.31266,77.539103)"
         id="g3823">
        <path
           sodipodi:nodetypes="ccsccccc"
           inkscape:connector-curvature="0"
           id="path3802"
           d="m 139.45692,210.92966 c 2.79086,-0.0159 11.69787,0.053 11.69787,0.053 0.25516,0.055 3.21976,-0.21867 5.4082,-3.65786 3.6558,-5.74519 23.90208,-40.92127 23.89606,-40.93533 l 0,0 0,0 -7.69015,-13.31974 z"
           style="fill:#f7c641;fill-opacity:1;stroke:none" />
        <path
           sodipodi:nodetypes="ccscccc"
           inkscape:connector-curvature="0"
           id="path3813"
           d="m 139.45692,210.92966 -11.56024,-0.0336 c 0,0 -5.17744,0.50105 -2.27305,-4.13363 1.4522,-2.31734 26.12832,-44.46562 26.12832,-44.46562 0,0 0.49293,-0.78872 0.36925,-0.97313 l 8.54431,12.74039 z"
           style="fill:#0c9a54;fill-opacity:1;stroke:none" />
        <path
           style="fill:#c4c8b7;fill-opacity:0.31730766;stroke:none"
           d="m 152.54104,161.03642 15.75181,26.43356 -2.01031,3.43646 -21.98498,-15.88487 z"
           id="path3817"
           inkscape:connector-curvature="0"
           sodipodi:nodetypes="ccccc" />
        <path
           sodipodi:nodetypes="ccscccc"
           inkscape:connector-curvature="0"
           id="path3811"
           d="m 175.97521,174.48671 c 1.38166,-2.42491 5.62203,-8.91539 5.62203,-8.91539 0,0 2.33469,-5.06319 -1.45338,-11.12411 -1.89403,-3.03046 -26.10754,-41.87029 -26.10754,-41.87029 -0.6615,-1.06119 -1.43528,-1.05126 -2.26864,-1.06119 l -13.77317,0 z"
           style="fill:#d8493f;fill-opacity:1;stroke:none" />
        <path
           sodipodi:nodetypes="ccscccc"
           inkscape:connector-curvature="0"
           id="path3819"
           d="m 137.99448,111.51572 -11.56024,0.0336 c 0,0 -5.17744,-0.50105 -2.27302,4.13365 1.4522,2.31734 42.45366,69.65624 42.45366,69.65624 0,0 1.19745,1.83157 0.47347,4.18264 l 8.88686,-15.03514 z"
           style="fill:#5a81c1;fill-opacity:1;stroke:none" />
      </g>
      <path
         transform="matrix(1.1161533,0,0,1,412.80544,71.882253)"
         clip-path="url(#clipPath3044)"
         mask="none"
         style="fill:#e1e1e1;fill-opacity:1"
         d="m 266.64436,310.85555 c -0.25062,-0.34834 -0.0935,-0.82598 0.34913,-1.06108 0.4426,-0.23532 0.80475,-0.90636 0.80475,-1.4916 0,-0.88167 -0.20924,-0.91474 -1.22135,-0.19278 -1.54956,1.10536 -2.60251,0.27593 -4.10664,-3.23495 -1.33313,-3.11172 -1.41762,-10.51163 -0.14336,-12.55804 0.507,-0.8143 1.01075,-4.44019 1.11942,-8.05753 0.10873,-3.61738 0.63021,-7.27179 1.15893,-8.12093 1.51161,-2.42763 4.32545,-24.06142 3.59722,-27.65663 -0.43082,-2.12674 -1.47122,-3.3116 -5.69967,-6.49112 -1.77866,-1.33746 -2.99315,-3.47221 -4.90329,-8.61866 -1.39645,-3.76249 -3.04202,-7.19968 -3.65677,-7.63819 -1.85765,-1.32513 -0.62559,-9.1506 2.09842,-13.32839 2.38348,-3.65547 2.79672,-6.45817 1.41334,-9.58547 -1.094,-2.47321 -2.38928,-3.11254 -3.90977,-1.92986 -0.79478,0.61826 -1.62602,0.73847 -2.37073,0.34299 -1.9019,-1.01027 -0.18701,-1.64726 4.19741,-1.55905 3.88486,0.0781 4.25217,-0.061 5.91615,-2.2428 1.95263,-2.56031 3.34325,-3.00887 3.34325,-1.07841 0,2.03339 1.03484,2.32183 2.46858,0.68809 1.0022,-1.14198 1.61053,-1.34669 2.4059,-0.80952 1.70523,1.15158 4.85788,1.5987 5.9218,0.83977 1.19741,-0.85415 4.24913,0.35983 4.24913,1.69041 0,1.60848 6.157,6.55261 8.16007,6.55261 2.05124,0 3.29873,1.01896 6.00821,4.90766 l 1.75963,2.5256 -1.62907,1.1989 c -2.5944,1.90925 -1.96059,2.67393 2.26172,2.72863 2.91668,0.0384 4.57107,0.49645 6.60763,1.83153 1.49424,0.97957 3.43591,1.78108 4.31482,1.78108 1.67574,0 7.27522,3.46818 8.42461,5.21799 1.02104,1.55452 -0.12836,5.61427 -2.71537,9.58881 -1.74562,2.68208 -2.42948,4.77449 -2.73386,8.3648 -0.57341,6.76297 -2.28359,10.08677 -5.83538,11.34119 -4.63079,1.63554 -7.20209,4.14885 -7.20209,7.03984 0,1.5718 -0.663,3.21982 -1.78168,4.42876 -0.97991,1.05897 -2.67254,3.47083 -3.76133,5.35967 -1.39369,2.41771 -2.56565,3.54587 -3.95934,3.81144 -1.4321,0.27284 -2.00107,0.84544 -2.05717,2.07013 -0.12467,2.71643 -1.75656,4.71273 -3.85308,4.71273 -1.89207,0 -4.38394,1.5751 -4.38394,2.77102 0,0.34759 -0.71266,0.63203 -1.58372,0.63203 -1.67116,0 -2.2717,2.27665 -0.80594,3.05527 0.45381,0.24104 -0.041,1.5279 -1.18778,3.08937 -2.0949,2.85224 -2.45426,4.40514 -1.17665,5.08385 0.91866,0.488 -0.80593,3.70607 -2.71638,5.06886 -2.87615,2.05163 0.0906,8.08254 4.06908,8.27237 0.9938,0.0474 0.82592,0.23186 -0.55793,0.61277 -2.79821,0.77027 -6.15998,0.79388 -6.69701,0.0472 z m 30.45289,-92.30965 c 0,-0.58363 -0.35639,-0.87183 -0.79186,-0.64048 -0.43554,0.23147 -0.79187,0.70889 -0.79187,1.06108 0,0.35219 0.3564,0.64045 0.79187,0.64045 0.43552,0 0.79186,-0.47749 0.79186,-1.06105 z m 301.18593,76.2506 c -0.28779,-0.64419 0.84952,-2.29788 2.99435,-4.35469 5.84176,-5.602 7.70777,-4.00343 2.25181,1.92914 -3.33567,3.62705 -4.47463,4.15367 -5.24616,2.42555 z m -30.6116,-5.52212 c -0.73299,-0.62997 0.14978,-1.60658 1.45208,-1.60658 0.66687,0 0.93272,0.41098 0.66039,1.02093 -0.48331,1.08257 -1.27802,1.30289 -2.11247,0.58565 z m 40.71067,-5.26366 c -0.49638,-0.51404 -0.68006,-1.43289 -0.40816,-2.04182 0.55715,-1.24802 1.04246,-1.3424 2.58421,-0.5027 0.83584,0.45521 0.87329,0.90213 0.17016,2.03139 -1.06363,1.70819 -1.16986,1.73141 -2.34617,0.51313 z m -46.19516,-2.76697 c -0.62564,-0.39729 -1.38019,-1.488 -1.67677,-2.42386 -0.2966,-0.93586 -1.587,-2.74566 -2.86764,-4.02185 -1.96826,-1.96145 -2.51747,-2.18542 -3.55121,-1.44803 -1.01336,0.72287 -1.22288,0.69105 -1.22288,-0.18546 0,-0.58188 -1.08906,-1.7245 -2.42015,-2.53913 -2.04059,-1.2489 -3.06628,-1.41182 -6.53967,-1.03883 -4.74113,0.50915 -5.49993,0.83764 -6.78669,2.93779 -0.51609,0.84226 -1.5546,1.53136 -2.30788,1.53136 -0.75333,0 -2.7499,0.63584 -4.4369,1.41296 -2.68557,1.23718 -3.21069,1.28964 -4.22048,0.42178 -1.00881,-0.86711 -1.00917,-1.22758 -0.005,-2.87816 1.03542,-1.69853 0.99176,-2.23319 -0.4371,-5.35613 -0.87304,-1.90809 -1.67546,-4.58055 -1.78313,-5.93887 -0.10772,-1.35828 -0.43086,-3.38949 -0.71816,-4.5138 -0.70924,-2.77552 2.12069,-5.54166 7.1485,-6.98729 3.2166,-0.92488 3.9297,-1.44861 4.48639,-3.29513 0.36405,-1.20755 1.19506,-2.3714 1.84667,-2.58629 0.65164,-0.21499 1.71022,-1.26412 2.35247,-2.33155 0.99684,-1.65691 1.51001,-1.88189 3.50829,-1.53841 1.98366,0.34106 2.48609,0.12795 3.29407,-1.39611 1.00287,-1.89186 3.23074,-2.71128 6.34234,-2.33269 1.56936,0.19083 1.82317,0.56258 1.61373,2.36344 -0.19659,1.69172 0.29814,2.57729 2.37559,4.25064 1.44326,1.16257 3.21282,2.11519 3.93235,2.11693 1.73911,0.003 3.19596,-3.72667 2.57181,-6.58621 -0.27094,-1.24219 -0.30888,-2.25855 -0.084,-2.25855 0.96627,0 4.37641,6.02409 4.87801,8.61713 0.30121,1.55758 1.22062,3.35528 2.04293,3.99493 0.82226,0.63961 2.62176,3.02363 3.99885,5.2979 3.1871,5.26342 4.04747,13.28631 1.94767,18.16226 -0.72542,1.6845 -1.66909,4.05456 -2.09704,5.2667 -0.42795,1.2122 -1.56426,2.58403 -2.52512,3.04856 -2.18787,1.05767 -7.15339,1.19184 -8.66174,0.23415 z m -170.89063,-8.28213 c -0.41774,-0.94437 -0.75954,-2.47297 -0.75954,-3.39687 0,-0.92388 -0.89084,-3.19086 -1.97964,-5.03765 -1.2517,-2.12306 -1.97967,-4.49988 -1.97967,-6.46364 0,-1.71888 -0.83817,-4.8444 -1.87688,-6.99887 -2.81379,-5.83637 -3.23446,-10.14165 -1.29485,-13.2521 1.39745,-2.24102 1.49513,-3.0801 0.83094,-7.13959 -0.4693,-2.86834 -1.76725,-6.304 -3.44768,-9.12597 -2.75004,-4.61818 -2.90877,-6.57082 -0.96214,-11.83556 0.74612,-2.0179 -2.05401,-4.0854 -4.19761,-3.09939 -1.35905,0.62518 -1.80343,0.39689 -3.20665,-1.64725 -0.89592,-1.30517 -2.02292,-2.373 -2.50447,-2.373 -0.48155,0 -2.45909,0.79768 -4.39462,1.77258 -2.38782,1.20276 -4.13679,1.63932 -5.44067,1.35804 -1.05691,-0.22802 -2.8396,-0.0552 -3.96155,0.38432 -1.81026,0.70897 -2.30155,0.58341 -4.36408,-1.11496 -1.27828,-1.05263 -2.91761,-3.01863 -3.64295,-4.36891 -0.72535,-1.35025 -2.39657,-3.43384 -3.71379,-4.63021 -2.32997,-2.11617 -2.37753,-2.29164 -1.75197,-6.46578 0.35372,-2.35982 0.59645,-6.28135 0.53958,-8.71453 -0.12888,-5.5089 2.0855,-10.99523 5.76871,-14.29281 1.6866,-1.50998 2.86186,-3.37882 3.2101,-5.10456 0.66074,-3.27459 4.60112,-7.14638 7.27304,-7.14638 1.01784,0 3.5314,-0.73052 5.58563,-1.62342 2.45701,-1.06795 5.4963,-1.70838 8.88213,-1.87168 l 5.1471,-0.24831 0,3.05273 c 0,3.00616 0.0786,3.09709 5.14712,5.95229 2.83092,1.59475 5.48397,2.9009 5.89561,2.90255 0.41174,0.001 1.73153,-0.80636 2.93295,-1.79571 2.11619,-1.74256 2.30302,-1.77107 5.98231,-0.91263 4.69134,1.09461 4.50039,0.94731 3.43824,2.65313 -1.11871,1.79662 -0.45291,1.79996 2.1931,0.0119 1.54892,-1.0472 2.73936,-1.3027 4.64093,-0.99609 2.17342,0.35065 2.76728,0.13728 3.95332,-1.41839 0.8579,-1.12539 1.40621,-3.16741 1.42296,-5.2996 l 0.0268,-3.46869 -4.11398,0.22991 c -4.72258,0.26405 -8.09354,-1.28887 -8.13496,-3.74748 -0.0399,-2.35467 -0.87831,-3.62886 -2.38825,-3.62886 -2.10601,0 -3.46789,1.72006 -2.51751,3.17966 0.78241,1.20172 -0.0778,3.62975 -1.28393,3.6235 -0.31117,-0.001 -1.45688,-1.84871 -2.54571,-4.10461 -2.28504,-4.73443 -8.12852,-10.86586 -10.35558,-10.86586 -0.83729,0 -1.52233,0.33569 -1.52233,0.74571 0,1.09232 3.12745,4.81216 5.48172,6.52005 1.49938,1.08767 1.80855,1.68476 1.16522,2.25006 -0.64669,0.56819 -2.15411,-0.31232 -5.76275,-3.36622 -4.12334,-3.48944 -5.12292,-4.02714 -6.39692,-3.4411 -0.83041,0.38207 -2.61115,0.69454 -3.95717,0.69454 -1.8655,0 -2.62181,0.39464 -3.18159,1.66013 -0.4039,0.9131 -1.45201,1.99024 -2.3291,2.39373 -0.87708,0.40347 -1.96687,1.92145 -2.42174,3.37335 -0.67922,2.16799 -1.38085,2.83027 -3.92584,3.70551 -2.80466,0.96455 -3.33293,0.96529 -5.56575,0.008 -2.45572,-1.05297 -2.46477,-1.07695 -1.97793,-5.24846 0.72285,-6.19402 0.65373,-6.11154 4.687,-5.59172 2.92168,0.37671 3.78534,0.21768 5.13798,-0.94481 2.14943,-1.84745 2.0545,-3.81339 -0.28128,-5.82083 -2.11609,-1.81878 -1.64603,-2.55238 2.13293,-3.32878 1.32874,-0.27285 2.50158,-1.12213 2.94991,-2.13572 0.40934,-0.92533 1.22549,-1.68245 1.81365,-1.68245 0.5881,0 1.90624,-0.76572 2.92912,-1.70153 1.02287,-0.93584 2.48883,-1.70152 3.25768,-1.70152 1.0376,0 1.46124,-0.64431 1.64366,-2.49967 0.29505,-3.00247 2.00334,-3.82401 2.36624,-1.13808 0.20846,1.54139 0.76369,1.98082 3.02661,2.39445 1.52435,0.2786 3.87524,0.20464 5.22423,-0.16447 1.34898,-0.36905 2.9845,-0.49569 3.63446,-0.28129 1.4552,0.47999 2.77753,-0.81451 3.14135,-3.0752 0.19047,-1.18371 0.84392,-1.77085 2.1472,-1.92933 1.03334,-0.12559 2.05122,-0.81234 2.27,-1.53137 0.29316,-0.9633 1.10242,-1.30355 3.10059,-1.30355 1.77874,0 2.87501,-0.38321 3.20377,-1.11934 0.80667,-1.80679 -1.66684,-2.85482 -5.36576,-2.27347 -2.91541,0.4582 -3.30607,0.34987 -4.09238,-1.13322 -0.76554,-1.44414 -0.53358,-1.94187 1.94411,-4.17188 3.08156,-2.77353 3.13503,-4.23367 0.15484,-4.23367 -1.41612,0 -2.27105,0.62108 -3.22714,2.34432 -0.71539,1.28933 -2.28753,2.69564 -3.49366,3.12508 -2.80324,0.99795 -3.49122,2.55822 -1.82561,4.14011 1.21418,1.15318 1.21561,1.37084 0.0191,2.94038 -0.71068,0.93226 -1.29217,2.17278 -1.29217,2.75671 0,0.95686 -2.89117,2.38923 -4.82251,2.38923 -0.41804,0 -0.98003,-0.94513 -1.24881,-2.10034 -0.53676,-2.30653 -2.2421,-3.27743 -3.64259,-2.07367 -1.64118,1.41057 -3.69166,0.87252 -4.1947,-1.10069 -0.26251,-1.02944 -0.61438,-2.25455 -0.78211,-2.72245 -0.56195,-1.56785 0.59838,-2.91639 3.97139,-4.61539 1.84177,-0.92769 4.7398,-3.34976 6.44011,-5.38239 4.2678,-5.10196 8.75493,-6.86237 17.34497,-6.8049 4.86002,0.0307 7.09363,0.38131 9.59385,1.49857 1.79245,0.80085 4.91043,1.81354 6.92883,2.25036 2.01838,0.43683 3.66981,1.05339 3.66981,1.37012 0,1.0497 -3.10429,2.02453 -5.08586,1.59707 -2.67413,-0.57687 -3.69521,0.10535 -2.90545,1.9409 0.44878,1.04308 1.52892,1.63292 3.49453,1.90832 3.13286,0.43885 3.68409,0.2441 4.98329,-1.75982 0.49464,-0.7629 1.71276,-1.36525 2.7715,-1.37041 1.54787,-0.008 1.93388,-0.40711 2.13721,-2.21199 0.24104,-2.13892 1.73152,-3.19088 1.73152,-1.22203 0,1.61859 1.18376,1.77042 5.40454,0.6931 2.20895,-0.56382 6.37206,-1.08517 9.25137,-1.15851 3.1129,-0.0794 5.57621,-0.48665 6.07665,-1.00495 1.12643,-1.16659 3.12487,-1.09795 7.01827,0.24104 4.0887,1.40614 5.50023,0.5495 3.47406,-2.10835 -1.37258,-1.80049 -1.35962,-1.84702 1.10189,-3.96268 1.97989,-1.701722 2.69187,-1.967976 3.47118,-1.298145 1.40227,1.205255 1.50983,8.297795 0.15096,9.965045 -1.49551,1.83521 -1.3938,2.41703 0.42262,2.41703 0.84137,0 2.24888,-0.86803 3.12784,-1.92896 1.31249,-1.58425 2.04071,-1.87309 4.07535,-1.6164 2.32909,0.29392 2.46178,0.19543 2.21726,-1.64427 -0.23299,-1.7511 -0.53059,-1.93862 -2.83369,-1.78403 -2.07544,0.13914 -2.57353,-0.079 -2.57353,-1.12735 0,-0.97743 0.40464,-1.20912 1.63052,-0.93359 1.19822,0.26939 1.74753,-0.0191 2.07195,-1.08465 0.63166,-2.075969 2.17361,-1.80006 5.39011,0.96451 4.17609,3.58941 6.32656,1.79718 2.24125,-1.86792 l -2.12781,-1.908918 2.20352,0 c 1.21196,0 3.25515,-0.643613 4.5405,-1.430228 1.28532,-0.78666 3.83467,-1.597144 5.66526,-1.80105 1.83058,-0.203871 4.01009,-0.772715 4.84335,-1.263933 0.96226,-0.567264 2.70061,-0.753465 4.76438,-0.510357 2.49175,0.293546 3.94104,0.03071 6.21598,-1.121643 2.81951,-1.429822 3.06672,-1.447967 4.98694,-0.366723 1.25577,0.707182 2.82519,0.991492 4.14699,0.751206 1.16962,-0.212678 3.19557,-0.127656 4.50214,0.188934 2.01173,0.487458 2.33776,0.868509 2.12868,2.487964 -0.29853,2.31179 0.8603,3.041385 4.85215,3.055149 1.66185,0.0045 3.70758,0.32612 4.54605,0.711676 1.11992,0.515163 2.14647,0.424823 3.86794,-0.340313 1.28885,-0.572863 3.61721,-1.041533 5.17407,-1.041533 2.50693,0 2.88455,0.23184 3.30217,2.026519 0.58552,2.51626 2.26503,3.85405 3.64611,2.90432 0.54445,-0.37438 3.01718,-0.81838 5.49507,-0.98667 5.31245,-0.36098 6.97676,-1.33678 6.97676,-4.091258 0,-1.449818 -0.4483,-2.122947 -1.58373,-2.378159 -3.23794,-0.727765 -1.59336,-1.744594 2.11507,-1.307686 4.33681,0.510909 5.11716,0.965048 3.22342,1.875955 -3.12992,1.505506 0.0306,3.998798 5.06604,3.998798 1.32629,0 3.31743,0.61253 4.42479,1.36121 1.50161,1.01522 3.21242,1.3612 6.73081,1.3612 3.48233,0 5.23277,0.34834 6.68564,1.33067 1.65629,1.1198 2.75646,1.26742 6.94261,0.93142 3.31282,-0.26595 5.15936,-0.14218 5.52817,0.37096 0.79725,1.10871 3.37878,0.94818 3.91069,-0.24335 0.35371,-0.79199 0.90222,-0.86634 2.51187,-0.34031 1.13269,0.3702 3.19435,0.67769 4.58143,0.68345 3.46193,0.0152 4.18385,0.58137 4.75227,3.7329 0.46779,2.59343 -0.26478,4.76426 -1.60748,4.76426 -0.34258,0 -0.52021,0.68916 -0.39481,1.53137 0.17818,1.19714 -0.16752,1.5332 -1.58378,1.53959 -0.99639,0.005 -3.36244,0.77018 -5.25789,1.70151 -2.45843,1.20799 -4.62801,1.69333 -7.5693,1.69333 -5.46615,0 -6.84378,0.98658 -7.67298,5.49498 -0.37326,2.02981 -1.13163,3.99741 -1.68522,4.37251 -0.5536,0.37517 -2.04768,1.87905 -3.32024,3.34217 l -2.3137,2.66026 -1.10548,-3.25853 c -1.32022,-3.89168 -0.37555,-6.63135 2.88491,-8.3658 2.79537,-1.48713 5.61952,-3.68039 5.61952,-4.36424 0,-0.30887 -0.54571,-0.56195 -1.21265,-0.56195 -0.66696,0 -1.41776,-0.45944 -1.66844,-1.02092 -0.77684,-1.73996 -2.85827,-1.13873 -6.39978,1.84863 -3.07641,2.59515 -3.60944,2.80362 -5.57299,2.17973 -1.19415,-0.37938 -4.66556,-0.51649 -7.71419,-0.30464 -5.38872,0.3744 -5.65878,0.48319 -9.70033,3.90157 -4.68413,3.96191 -5.17121,5.44017 -1.97965,6.00798 5.24808,0.9337 6.91445,1.50781 6.70625,2.31042 -0.1223,0.47185 0.21612,1.90116 0.75279,3.17622 0.75888,1.80383 0.76432,2.49963 0.023,3.13547 -0.73977,0.63583 -0.95072,0.24718 -0.95072,-1.75099 0,-3.81558 -2.37687,-3.10904 -3.61894,1.07581 -1.12859,3.80241 -7.69806,10.89089 -9.53276,10.2858 -1.39725,-0.46085 -3.72402,1.24541 -5.98366,4.3879 -1.50409,2.09174 -1.56528,2.56827 -0.63939,4.9796 0.78211,2.03688 0.81093,3.0681 0.12231,4.36759 -1.3006,2.45347 -2.76888,2.1848 -2.11183,-0.38645 0.36253,-1.41827 0.15872,-2.45469 -0.6353,-3.23283 -0.6428,-0.62998 -1.41303,-1.83451 -1.71168,-2.67674 -0.36903,-1.04051 -1.16037,-1.53137 -2.4692,-1.53137 -1.18434,0 -1.92628,-0.39322 -1.92628,-1.02092 0,-1.35601 -0.42706,-1.29353 -3.1995,0.46827 -3.44763,2.19082 -2.82413,5.9975 0.98227,5.9975 1.78216,0 1.79979,0.55812 0.0693,2.20147 -1.27991,1.21557 -1.27991,1.47151 0,4.56887 2.33397,5.64827 1.87928,7.99222 -2.52595,13.02104 -3.79069,4.32737 -6.54024,6.07176 -9.57037,6.07176 -0.82489,0 -1.73064,0.32113 -2.01289,0.71363 -0.34987,0.48677 -0.87316,0.45691 -1.64533,-0.0939 -0.89203,-0.63628 -1.46059,-0.55209 -2.68078,0.39702 -2.72802,2.12197 -2.66131,3.53643 0.39201,8.31082 2.35549,3.68317 2.79914,4.95897 2.38478,6.8575 -0.43489,1.99231 -3.73608,5.50504 -5.23737,5.57289 -0.26173,0.0119 -1.58306,-1.50982 -2.93675,-3.38151 -2.62792,-3.63353 -4.00541,-4.23541 -4.6728,-2.04183 -0.78792,2.58962 -1.8132,1.34708 -1.82527,-2.21197 -0.0152,-4.50689 -0.92111,-5.9357 -3.04582,-4.80431 -1.82229,0.97034 -2.48509,0.5363 -2.48509,-1.62737 0,-1.74472 -3.61778,-8.37398 -4.56654,-8.36777 -2.97154,0.0191 -6.77903,1.75181 -8.65537,3.93812 -1.19136,1.38813 -3.33615,3.67328 -4.76627,5.07812 -2.02314,1.98737 -2.61434,3.19576 -2.66393,5.44487 -0.0786,3.55946 -1.6653,9.01608 -2.62197,9.01608 -1.36107,0 -6.07091,-11.94329 -6.6573,-16.88165 -0.53854,-4.5356 -0.71237,-4.88581 -2.35013,-4.73567 -1.2537,0.11494 -1.76854,-0.20004 -1.76854,-1.08148 0,-0.68397 -0.97993,-2.3541 -2.17761,-3.7114 l -2.17762,-2.46786 -4.98572,0.41362 c -4.68356,0.38852 -5.12464,0.29928 -7.27745,-1.47352 -1.52286,-1.254 -2.75075,-1.73573 -3.65998,-1.43587 -1.4629,0.48251 -6.64493,-3.2289 -6.64493,-4.75909 0,-1.16547 -2.02147,-1.67294 -3.07095,-0.77092 -1.37647,1.1831 -1.10396,2.14909 1.95583,6.93365 2.93742,4.59317 4.28627,5.27145 6.71932,3.37889 1.26151,-0.98122 1.58993,-0.90085 4.02167,0.98446 l 2.64802,2.05297 -2.67282,4.48172 c -2.14833,3.60223 -3.39146,4.83021 -6.33492,6.25761 -2.01415,0.97675 -4.9139,2.45485 -6.44397,3.28468 -3.90644,2.11872 -6.26651,2.6818 -6.62118,1.57965 -0.15906,-0.49372 -0.67508,-2.66808 -1.14712,-4.8319 -0.47205,-2.16384 -1.60259,-4.83269 -2.51231,-5.93073 -0.90972,-1.09807 -2.33167,-3.76863 -3.15996,-5.93459 -2.51228,-6.56974 -3.93251,-9.04268 -5.19326,-9.04268 -2.16936,0 -2.02623,1.67144 0.76044,8.87966 4.40147,11.38519 5.19688,13.09513 7.33975,15.77887 1.11493,1.39633 2.26405,3.54025 2.55356,4.76428 0.65639,2.7749 2.80884,3.18605 6.51446,1.2443 1.46508,-0.76775 3.12536,-1.39699 3.6895,-1.3984 2.63859,-0.008 -2.74245,11.99423 -7.35585,16.40506 -1.41235,1.35032 -3.92164,4.41308 -5.57626,6.80607 -3.17327,4.58953 -3.76943,8.40778 -1.95365,12.51272 1.01113,2.28581 1.03377,10.25993 0.0344,11.86603 -0.41838,0.67186 -2.07041,2.34731 -3.67123,3.72322 -2.81994,2.42378 -2.89639,2.61971 -2.45549,6.29166 0.40916,3.40732 0.26021,3.94528 -1.47589,5.32816 -1.18029,0.94015 -1.93431,2.30161 -1.93953,3.5019 -0.008,2.03769 -5.83792,9.9307 -8.48042,11.48318 -0.77515,0.45537 -3.29464,1.01366 -5.59892,1.24055 -3.94855,0.3888 -4.23328,0.31385 -4.94912,-1.30451 z m 20.5929,-54.67115 c 0.45084,-0.72404 0.8197,-1.97046 0.8197,-2.76977 0,-2.11287 -3.46701,-1.60284 -3.82394,0.56256 -0.53573,3.24994 1.44763,4.70712 3.00424,2.20721 z m 28.53931,-67.08928 c 0.78952,-0.81767 0.79187,-1.63446 0.0119,-4.02988 -0.53826,-1.6524 -0.77391,-3.28914 -0.52366,-3.63717 0.25024,-0.34796 -0.42399,-1.65685 -1.49834,-2.90842 -2.20889,-2.57335 -2.57708,-4.4044 -0.76554,-3.80689 3.15157,1.03949 4.6591,-1.4804 2.25285,-3.76573 -1.46756,-1.3938 -3.48717,-1.613 -4.7625,-0.51687 -0.73629,0.63286 -2.31104,1.08082 -4.43613,1.26198 -0.33608,0.0268 -0.99317,0.77329 -1.46047,1.65482 -0.68059,1.28384 -0.51257,2.17055 0.84461,4.45711 0.93183,1.56991 2.21266,3.02534 2.84627,3.23435 1.50185,0.49533 1.48017,2.02227 -0.0344,2.52225 -1.92301,0.63425 -1.40712,3.59047 0.89866,5.14935 2.45687,1.6611 5.24025,1.82278 6.6285,0.3851 z m -17.10548,-8.6927 c 0.67714,-0.92267 0.19697,-1.70098 -2.51294,-4.07439 -1.8425,-1.61362 -3.35001,-3.287 -3.35001,-3.71866 0,-1.60633 -1.54642,-1.5209 -3.38918,0.18702 l -1.90132,1.7624 -1.33231,-1.7477 c -0.73278,-0.96122 -1.6798,-1.74769 -2.10447,-1.74769 -1.52667,0 -5.543,6.40634 -5.33369,8.50763 0.17743,1.78001 0.54626,2.06998 2.87764,2.26157 1.47083,0.12072 3.05655,-0.10874 3.52381,-0.5105 1.17111,-1.0066 3.89886,-0.91397 6.43883,0.21882 2.47256,1.1026 5.83563,0.56206 7.08364,-1.1385 z m -12.19786,-33.18147 c 0,-0.76042 -0.57046,-1.57072 -1.26768,-1.80069 -1.61407,-0.53237 -2.88673,1.14018 -1.75751,2.30968 1.28754,1.33341 3.02519,1.04105 3.02519,-0.50899 z m 16.15101,148.96031 c -0.34297,-0.47672 -0.65281,-3.63219 -0.68895,-7.01217 -0.0656,-6.13661 -0.0617,-6.14938 2.81367,-8.91777 1.58364,-1.5248 3.0594,-3.20931 3.27948,-3.74332 0.74716,-1.81316 1.75077,0.10297 1.55843,2.97568 -0.27208,4.06228 -4.32606,17.00417 -5.42213,17.30913 -0.50451,0.14031 -1.19772,-0.13493 -1.5405,-0.61155 z m 186.56563,-13.75782 c 0,-0.56152 0.3564,-1.21021 0.79184,-1.44154 0.43553,-0.23148 0.79189,0.0386 0.79189,0.60027 0,0.56149 -0.3564,1.2102 -0.79189,1.44154 -0.43553,0.23147 -0.79184,-0.0386 -0.79184,-0.60027 z m -44.44919,-14.3731 c -1.95892,-2.85368 -3.18831,-2.98436 -5.39476,-0.57339 l -1.65536,1.80875 -1.96551,-1.58709 c -1.08101,-0.87289 -1.96552,-2.27715 -1.96552,-3.12057 0,-1.67631 -2.5185,-3.67662 -6.34377,-5.03849 -1.60022,-0.56969 -2.29771,-1.21146 -2.01206,-1.85129 0.24064,-0.53861 0.43723,-1.29845 0.43723,-1.68854 0,-0.44117 1.57116,-0.59209 4.15727,-0.39929 6.6596,0.49641 11.05982,3.604 15.711,11.09549 2.525,4.067 1.69265,5.23102 -0.96852,1.35442 z m -50.17831,-1.70153 c -0.62307,-0.86658 1.21147,-0.86658 2.77154,0 0.96566,0.53638 0.8633,0.6617 -0.54717,0.67016 -0.95424,0.003 -1.9552,-0.29584 -2.22437,-0.67016 z m -6.33488,-1.36124 c -0.6194,-0.86138 0.4289,-0.86138 1.97966,0 1.02359,0.5686 1.00274,0.66122 -0.15147,0.67018 -0.7364,0.008 -1.5592,-0.29583 -1.82839,-0.67018 z m -4.94525,-5.69157 c -1.28332,-1.25626 -2.73281,-3.64779 -3.2211,-5.31459 -0.48832,-1.66678 -1.71674,-4.08352 -2.72979,-5.37056 -3.13841,-3.98694 -3.18755,-4.49164 -0.16178,-1.6594 8.07767,7.56079 9.8701,9.69891 9.8701,11.77371 0,3.01346 -1.09271,3.17949 -3.75749,0.57084 z m 13.25979,-1.30959 c -1.27311,-0.55032 -2.37368,-1.92103 -3.08374,-3.84078 -1.02166,-2.76224 -0.99212,-3.05401 0.3959,-3.90764 0.82503,-0.50737 3.16713,-2.29664 5.20465,-3.97617 2.03752,-1.67957 3.90571,-3.05372 4.15158,-3.05372 0.24565,0 0.46668,1.14854 0.49074,2.55227 0.023,1.40376 0.0579,3.31797 0.0752,4.25382 0.0507,2.76403 -2.74329,8.82982 -4.0667,8.82879 -0.65327,-5.5e-4 -2.07863,-0.38598 -3.16743,-0.85657 z m 10.29419,-1.18748 c 0,-0.76041 0.54988,-1.56394 1.22197,-1.7856 1.62966,-0.53754 1.97396,-0.13526 1.4258,1.66653 -0.57376,1.88581 -2.64777,1.97909 -2.64777,0.11916 z m -24.06906,-8.3161 c -1.37728,-1.84754 -3.13307,-7.30373 -2.51992,-7.83073 0.49768,-0.42775 3.17478,4.6611 3.9405,7.49042 0.6146,2.27087 0.10895,2.39201 -1.42058,0.34031 z m -30.44435,-8.67776 c 0,-0.93584 0.17974,-1.31869 0.39938,-0.85077 0.2196,0.46794 0.2196,1.23361 0,1.70153 -0.21959,0.46794 -0.39938,0.0851 -0.39938,-0.85076 z m 59.85849,0.41375 c -1.98688,-1.29633 -1.71991,-1.77496 0.98985,-1.77496 1.84766,0 2.37557,0.30235 2.37557,1.36121 0,1.55981 -1.35381,1.72628 -3.36542,0.41375 z m -289.09491,-4.37144 c -0.71531,-0.67942 -1.67916,-2.16855 -2.1418,-3.30925 -0.80139,-1.97589 -3.49395,-3.62281 -5.92302,-3.62281 -0.61972,0 -1.93073,-0.93462 -2.91338,-2.07696 -1.28203,-1.49045 -2.35093,-2.03219 -3.78503,-1.91842 -2.83413,0.22496 -5.6211,-0.67347 -8.0784,-2.6039 -1.16637,-0.9163 -3.03715,-2.3957 -4.15729,-3.2876 -1.20779,-0.96165 -2.03666,-2.361 -2.03666,-3.43837 0,-1.6768 -3.42613,-6.83165 -8.29291,-12.47731 -1.10071,-1.27687 -2.00127,-2.88481 -2.00127,-3.57319 0,-0.82089 -0.57686,-1.25163 -1.67605,-1.25163 -1.35532,0 -1.60448,0.32154 -1.30215,1.6809 0.6193,2.78477 -0.76929,1.26038 -2.18197,-2.39527 -0.73551,-1.90333 -2.12533,-3.87326 -3.13303,-4.44076 -0.99612,-0.56101 -2.98994,-2.92089 -4.43071,-5.24428 -2.4782,-3.99631 -2.62219,-4.61478 -2.66849,-11.45891 -0.0384,-5.52131 0.18549,-7.15727 0.94091,-6.90809 1.59902,0.52745 1.15376,-2.20308 -0.57904,-3.55093 -1.28389,-0.99866 -1.78733,-1.06449 -2.77153,-0.36253 -1.4463,1.0317 -3.57822,-0.13408 -3.57822,-1.95658 0,-1.61146 -3.89826,-6.31289 -4.82583,-5.82014 -0.42991,0.2284 -0.55077,1.04031 -0.26865,1.80435 0.34222,0.92625 0.22074,1.23398 -0.36366,0.92345 -0.48221,-0.25598 -0.87673,-1.20801 -0.87673,-2.11527 0,-0.90732 -0.87262,-2.49716 -1.93915,-3.53303 -1.06653,-1.0359 -2.75913,-2.70953 -3.76135,-3.71916 -1.12906,-1.1375 -3.75437,-2.36717 -6.90209,-3.23289 -6.1275,-1.68532 -7.4599,-1.72473 -9.99727,-0.29585 -1.60204,0.9022 -2.17599,0.94438 -3.17315,0.233 -1.72937,-1.23361 -2.95836,0.0448 -3.10715,3.23213 -0.11235,2.40084 -0.27439,2.5654 -2.33659,2.37211 -1.2189,-0.11417 -2.80109,0.24718 -3.51598,0.80342 -0.71493,0.55609 -2.36825,1.33937 -3.67402,1.74064 l -2.37414,0.72957 2.3756,-1.69971 c 1.30657,-0.93487 2.64286,-1.7013 2.96946,-1.70314 0.32651,-0.001 0.59391,-0.62356 0.59391,-1.38161 0,-0.98023 -0.67143,-1.49367 -2.32496,-1.77789 -1.27872,-0.21998 -2.52924,-0.85719 -2.77889,-1.4164 -0.30352,-0.67984 -1.06757,-0.88436 -2.30598,-0.61722 -2.57686,0.55588 -4.25017,-2.33119 -2.23887,-3.86287 0.73378,-0.55881 2.04275,-1.12767 2.90881,-1.26423 0.86603,-0.13643 1.70103,-0.8124 1.85554,-1.50202 0.24756,-1.10412 -0.09,-1.19997 -2.8247,-0.80283 -2.37073,0.34413 -3.35987,0.18777 -4.18019,-0.66192 -0.90812,-0.94047 -0.89847,-1.21169 0.0621,-1.75052 1.04901,-0.58828 1.85211,-0.5142 5.69011,0.5249 1.02303,0.27708 1.38573,-0.005 1.38573,-1.07641 0,-0.98609 -0.88001,-1.81228 -2.74419,-2.57637 l -2.74422,-1.12478 2.50209,-1.58664 c 1.3762,-0.87266 2.82451,-1.58667 3.21844,-1.58667 0.39398,0 1.88816,-0.47791 3.32035,-1.06207 2.35953,-0.96238 2.88167,-0.96238 5.56149,0 1.62655,0.58416 4.53823,1.06207 6.47032,1.06207 4.47152,0 14.47514,1.31398 16.28817,2.13943 0.90305,0.41117 1.99879,0.34874 3.1456,-0.17858 3.79857,-1.74729 18.58215,-1.84707 23.01208,-0.15518 4.17566,1.59465 5.34113,0.50836 2.97905,-2.77655 -1.7247,-2.39857 -3.43512,-3.08076 -4.39105,-1.75136 -0.6088,0.84668 -3.57461,0.86896 -5.10206,0.0384 -0.90512,-0.49221 -0.95962,-0.967 -0.26212,-2.28291 0.75102,-1.416746 1.56057,-1.710122 5.49799,-1.99241 4.03222,-0.28895 4.9447,-0.116919 7.20122,1.359998 1.99139,1.303172 3.19573,1.605642 5.25164,1.318872 1.502,-0.20962 3.05455,-0.0395 3.55301,0.38884 0.65245,0.56081 1.14091,0.54119 1.85729,-0.0748 1.72998,-1.486916 -0.34605,-3.156165 -4.22011,-3.393221 -1.9155,-0.11719 -3.82128,-0.500059 -4.23499,-0.850782 -0.41376,-0.350645 -1.57183,-0.637641 -2.57357,-0.637641 -1.00169,0 -1.82127,-0.288566 -1.82127,-0.641468 0,-0.352925 -1.51445,-0.735659 -3.36542,-0.85076 l -3.3654,-0.209246 2.61108,-1.225228 c 2.57441,-1.208042 2.67102,-1.200884 6.87973,0.510447 4.682,1.903753 6.01045,2.092517 7.2469,1.029779 0.56004,-0.481349 1.49202,-0.486724 2.92989,-0.01524 2.35559,0.76978 2.44335,0.955259 1.31148,2.772974 -0.57382,0.921577 -0.5137,1.4333 0.2146,1.826929 0.55648,0.300828 1.44531,1.395187 1.97518,2.432127 0.52988,1.03695 1.8801,2.18488 3.00043,2.55101 2.4812,0.8108 1.99937,1.71323 -1.20921,2.2648 -1.73735,0.29853 -2.39208,0.79694 -2.39208,1.82055 0,1.30603 0.39171,1.39456 5.34508,1.20805 4.96772,-0.18701 5.34062,-0.30925 5.28219,-1.7326 -0.0344,-0.84228 0.23261,-1.53138 0.5939,-1.53138 0.36137,0 0.65676,0.57506 0.65676,1.27789 0,2.00127 2.08376,3.18061 3.64811,2.06472 0.97745,-0.69726 1.15942,-1.61679 0.7847,-3.96635 l -0.48775,-3.05865 2.74779,2.57836 c 1.51125,1.41811 3.12049,2.38038 3.57609,2.13837 0.45557,-0.24217 1.04208,0.0386 1.30335,0.62405 0.67325,1.50794 3.2582,1.31966 4.27372,-0.31119 1.10654,-1.77713 0.48951,-2.55845 -2.55611,-3.23678 -3.67224,-0.81787 -4.65423,-2.62784 -2.31932,-4.274837 2.09551,-1.478046 3.28293,-1.203255 3.28293,0.759767 0,1.70984 1.65593,1.69016 3.37967,-0.0402 2.16819,-2.176503 7.46342,-1.822313 13.43603,0.8987 2.72828,1.2429 5.78872,2.44529 6.80095,2.67188 1.01227,0.22649 2.0339,1.04772 2.27024,1.82463 0.23801,0.78277 2.15368,2.21899 4.29649,3.22143 2.12669,0.99481 3.8667,2.18677 3.8667,2.64875 0,1.35175 -2.05609,1.64636 -3.86982,0.55447 -3.08531,-1.85742 -4.53793,0.58491 -1.67323,2.81322 2.09143,1.6268 1.99788,2.15541 -0.45281,2.55806 -1.25013,0.2054 -3.61986,-0.33302 -6.13691,-1.39452 -2.25523,-0.95105 -5.25848,-1.7397 -6.67396,-1.7526 -1.56971,-0.0152 -2.57355,-0.36867 -2.57355,-0.90827 0,-0.48665 0.65055,-0.88481 1.44569,-0.88481 2.01395,0 5.20664,-3.0716 4.60146,-4.42699 -0.36137,-0.80921 -0.84101,-0.92348 -1.84645,-0.43981 -1.04798,0.50402 -1.55284,0.31806 -2.20904,-0.81313 -0.68092,-1.17383 -1.55706,-1.46646 -4.39064,-1.46646 -3.24657,0 -3.54342,0.14253 -3.58116,1.71858 -0.0605,2.53035 -0.96245,3.38598 -3.56894,3.38598 -1.54217,0 -2.32883,0.3449 -2.32883,1.02093 0,0.56149 0.669,1.0209 1.48675,1.0209 0.81771,0 1.89425,0.422 2.39227,0.93777 0.71479,0.7403 0.53927,1.02012 -0.8333,1.32859 -1.11942,0.25179 -2.08213,-0.0118 -2.70253,-0.7419 -0.71499,-0.84046 -1.24123,-0.94408 -2.0392,-0.40157 -0.59154,0.4022 -1.96637,0.91842 -3.05519,1.14721 -2.01412,0.42321 -7.91861,6.08504 -7.91861,7.5932 0,0.45522 0.86826,1.63289 1.92944,2.61707 1.85448,1.71989 5.24155,3.08082 11.86203,4.76622 2.54327,0.64747 3.37303,1.31742 4.61125,3.72291 1.19736,2.32613 1.86677,2.88969 3.23358,2.72229 1.47419,-0.18049 1.69622,-0.59651 1.53433,-2.8745 -0.14251,-2.0076 0.1985,-2.89694 1.38578,-3.61168 1.86516,-1.12286 1.99124,-2.40896 0.43794,-4.46816 -1.70427,-2.25936 -0.56938,-6.20044 1.87233,-6.50179 2.7091,-0.33417 8.01815,1.94004 8.83406,3.78453 0.94842,2.14406 2.84304,2.64197 4.66383,1.22572 1.87607,-1.45929 2.64284,-1.05756 5.23335,2.74172 1.13537,1.6652 2.3687,3.02757 2.74076,3.02757 0.3721,0 1.76193,0.99542 3.08854,2.212 2.47164,2.26661 3.19473,4.59182 1.42956,4.59703 -0.54441,10e-4 -2.58453,0.91221 -4.53361,2.02353 -2.94924,1.68168 -3.65332,1.85247 -4.19665,1.01803 -0.90493,-1.38984 -4.02216,-1.25512 -5.59849,0.24218 -2.09959,1.99407 -1.66485,3.01404 1.06509,2.4987 2.108,-0.39794 2.37625,-0.2698 2.38173,1.13697 0.008,1.54029 2.82181,3.287 5.2988,3.287 2.18119,0 0.87633,1.22668 -2.47503,2.32677 -2.85237,0.93628 -3.79626,0.99415 -5.06942,0.31079 -1.28534,-0.68994 -1.93149,-0.63307 -3.62178,0.31883 -1.13157,0.63722 -2.10192,1.45785 -2.15634,1.82355 -0.0544,0.36558 -0.18815,0.97117 -0.29698,1.34551 -0.10896,0.3744 -0.24258,0.98689 -0.297,1.3612 -0.0544,0.37444 -0.8044,0.68065 -1.66661,0.68065 -1.02717,0 -2.11528,0.92267 -3.15614,2.67623 -0.87364,1.47194 -1.95123,2.86896 -2.39457,3.10449 -0.44335,0.23567 -0.59184,1.16182 -0.32993,2.05852 0.38366,1.31384 -0.33303,2.36575 -3.69234,5.4186 l -4.1684,3.78825 0.92375,3.43954 c 1.29155,4.80917 1.23763,5.76808 -0.26404,4.69688 -0.65326,-0.46603 -1.18778,-1.55464 -1.18778,-2.41914 0,-3.13121 -7.21292,-5.73708 -9.45442,-3.41569 -0.63856,0.66134 -1.82123,0.84808 -3.70605,0.58518 -2.37526,-0.33147 -3.1551,-0.0637 -5.49398,1.88469 -2.65086,2.20829 -2.72582,2.41777 -2.72582,7.61591 0,5.67456 1.2046,8.77467 3.88937,10.00967 2.14472,0.98654 6.24325,-0.36562 6.55572,-2.16277 0.31502,-1.81132 2.65723,-3.15043 3.79703,-2.17077 0.57081,0.49063 0.5606,1.35778 -0.0344,2.82184 -0.47145,1.16251 -0.74338,3.13392 -0.60428,4.38098 0.21229,1.90191 0.57529,2.27313 2.25246,2.30283 3.44602,0.061 4.16023,0.8725 3.72029,4.2273 -0.22114,1.68543 -0.10896,3.94253 0.24946,5.01584 0.76376,2.28895 0.64978,2.36415 -1.08532,0.71624 z m -1.49466,-57.3504 c 0.46721,-3.47346 1.03694,-4.71093 2.169,-4.71093 0.65081,0 1.17272,0.61523 1.17272,1.38255 0,1.5851 2.08842,2.53954 3.29245,1.50467 0.44572,-0.38322 0.8672,-1.72335 0.93661,-2.97833 0.11679,-2.11531 -0.0758,-2.30692 -2.64535,-2.62667 -2.22634,-0.27706 -2.82147,-0.67968 -3.02548,-2.0465 -0.50321,-3.37108 -4.09449,-4.33399 -7.52183,-2.01679 -2.60548,1.76152 -2.03537,3.61138 0.94738,3.07405 2.84943,-0.51332 4.56631,0.45449 2.90656,1.63845 -1.25622,0.8961 -1.78796,7.48352 -0.68085,8.43507 0.99061,0.85146 2.22372,0.0191 2.44879,-1.65557 z m 10.1582,-0.0727 c 3.65512,-2.25613 4.08673,-3.4735 1.355,-3.82172 -1.03522,-0.13188 -2.48535,0.65967 -4.09523,2.23564 -4.32043,4.22938 -2.88667,5.05924 2.74023,1.58608 z m 277.8658,50.50209 c -0.27359,-0.38055 0.0584,-0.69171 0.73716,-0.69171 1.39093,0 1.59572,0.40839 0.49737,0.99182 -0.40544,0.21538 -0.96095,0.0801 -1.23453,-0.30005 z m -2.1723,-2.84605 c -0.23415,-0.52409 0.24642,-1.66592 1.06741,-2.53739 1.71137,-1.81652 1.97552,-0.56748 0.39737,1.87898 -0.75803,1.17511 -1.15448,1.35335 -1.46478,0.65841 z m -266.66616,-5.31445 c -0.90439,-0.49143 -0.96324,-0.82915 -0.251,-1.44115 1.17655,-1.01124 3.41206,-0.31576 3.41206,1.06159 0,1.17321 -1.39254,1.34044 -3.16088,0.37937 z m 251.0136,-0.99866 c 0,-0.53942 0.35639,-1.17003 0.79184,-1.40138 0.43553,-0.23147 0.79187,0.21001 0.79187,0.98073 0,0.77075 -0.35637,1.40138 -0.79187,1.40138 -0.43552,0 -0.79184,-0.44132 -0.79184,-0.98073 z m -265.85114,-6.2366 c 0.26327,-0.2261 0.94613,-0.25023 1.51778,-0.0538 0.63169,0.2173 0.44401,0.37864 -0.47844,0.4112 -0.83473,0.0306 -1.30244,-0.13137 -1.03934,-0.35754 z m -42.83245,-6.74042 c -1.37751,-1.23486 -1.64782,-1.93764 -1.08034,-2.80915 0.65645,-1.00825 0.93256,-0.87008 2.08315,1.04236 1.7661,2.93536 1.27195,3.8059 -1.00281,1.76679 z M 545.74185,157.7901 c 0,-1.71169 3.27116,-4.20229 5.51935,-4.20229 3.04401,0 6.99342,-3.09678 7.9847,-6.26083 0.54505,-1.73976 1.11141,-2.5044 1.47769,-1.995 0.32648,0.45426 0.17856,2.23156 -0.32881,3.9495 -1.00819,3.41279 -4.93262,6.5805 -9.1355,7.37391 -1.23227,0.23261 -2.66511,0.86266 -3.18404,1.40012 -1.29653,1.34274 -2.33336,1.22479 -2.33336,-0.26557 z m -161.5398,-8.28594 c 0,-0.37442 0.15721,-0.6806 0.34913,-0.6806 0.19198,0 0.56941,0.30618 0.83859,0.6806 0.26901,0.3744 0.11189,0.68061 -0.34911,0.68061 -0.46125,0 -0.83861,-0.30619 -0.83861,-0.68061 z m 176.5197,-9.42338 c 1.24725,-2.00307 2.02967,-2.24772 4.55223,-1.42338 2.55579,0.83521 1.77195,1.49289 -2.77481,2.32826 -2.48156,0.45596 -2.59031,0.40063 -1.77742,-0.90488 z m -276.50529,-8.68067 c -0.26137,-0.22457 -0.0927,-1.12911 0.3744,-2.01024 0.80517,-1.51887 0.96683,-1.54977 3.11449,-0.59521 3.16528,1.40686 2.9657,3.01368 -0.37442,3.01368 -1.45174,0 -2.85322,-0.18355 -3.11447,-0.40823 z m 75.48186,-6.01202 c -0.73839,-0.7647 -0.66436,-1.33929 0.34258,-2.6604 1.351,-1.77222 1.28017,-1.90938 -2.08849,-4.04428 -0.71819,-0.45514 -1.52509,-1.4655 -1.79307,-2.24523 -0.37557,-1.09258 0.008,-1.61131 1.66956,-2.26227 1.85755,-0.72747 2.29857,-0.67799 3.17882,0.35677 0.5621,0.66074 1.03192,1.83194 1.04404,2.60261 0.0118,0.77073 1.08112,2.60439 2.37558,4.07482 3.33795,3.79178 3.14853,5.15346 -0.71693,5.15346 -1.69959,0 -3.49101,-0.43547 -4.01231,-0.97537 z m -238.3944,-1.06644 c 0,-0.3744 0.3564,-0.68059 0.79189,-0.68059 0.43553,0 0.79184,0.30619 0.79184,0.68059 0,0.37439 -0.3564,0.68058 -0.79184,0.68058 -0.43554,0 -0.79189,-0.30619 -0.79189,-0.68058 z m 230.43179,-1.25574 c 0,-2.46993 2.88803,-4.98637 3.99555,-3.48147 1.02922,1.39861 0.93469,2.17276 -0.47708,3.90516 -1.7539,2.15222 -3.51847,1.93977 -3.51847,-0.42369 z m -49.49137,-13.71766 c -0.26901,-0.37439 -1.14412,-0.6806 -1.94435,-0.6806 -1.60741,0 -6.37018,-4.28078 -6.37018,-5.72552 0,-0.50266 -0.53452,-1.29516 -1.18782,-1.76118 -0.65326,-0.46599 -1.18778,-1.86366 -1.18778,-3.1059 0,-1.24223 -0.35638,-2.44791 -0.79186,-2.67925 -1.23862,-0.65801 -0.92774,-3.06275 0.39591,-3.06275 0.65992,0 1.18779,0.60499 1.18779,1.36122 0,0.7562 0.52792,1.36119 1.18783,1.36119 1.56372,0 1.50834,-1.66921 -0.12652,-3.81376 -0.9977,-1.30879 -1.76069,-1.62776 -3.16745,-1.3243 -1.49907,0.32344 -1.85311,0.12888 -1.85311,-1.01915 0,-2.198748 -1.39515,-3.933112 -4.14809,-5.156725 -3.25988,-1.448904 -11.73456,-2.363842 -13.1181,-1.416251 -0.75639,0.518069 -1.49851,0.291242 -2.77153,-0.847485 -1.27431,-1.139844 -1.46155,-1.643415 -0.70121,-1.886003 0.57055,-0.182035 1.95885,-1.065008 3.08513,-1.96214 1.12631,-0.897154 2.36093,-1.631209 2.74364,-1.631209 0.38284,0 1.03799,-0.773518 1.45622,-1.718964 0.41821,-0.945424 1.38932,-1.917991 2.15802,-2.161257 0.76867,-0.243346 2.2257,-1.194449 3.23782,-2.1137 1.7405,-1.580862 2.16035,-1.646464 7.74943,-1.211159 l 5.90922,0.460235 0.81039,-1.998091 c 0.59141,-1.458176 1.20234,-1.91003 2.26078,-1.672089 0.99757,0.224179 1.8828,-0.30312 2.83536,-1.689143 l 1.38494,-2.015143 15.38508,-0.493275 c 8.46179,-0.271324 15.51874,-0.378229 15.68211,-0.237974 0.29469,0.253307 1.55508,4.626719 2.36717,8.214663 0.34259,1.514403 0.85081,1.871675 2.6614,1.871675 1.23211,0 2.88186,-0.611727 3.67101,-1.361229 1.44961,-1.376697 5.14712,-1.897531 5.14712,-0.724965 0,0.349876 -1.95985,2.320721 -4.35527,4.379557 -4.23198,3.637418 -5.05173,5.236764 -3.65493,7.131078 0.37977,0.515042 0.34145,2.049318 -0.087,3.501033 -0.6254,2.117697 -1.19439,2.658302 -3.15224,2.994832 -2.24617,0.386132 -2.35798,0.553319 -1.86876,2.794609 0.51561,2.36238 -0.52843,3.36346 -1.42152,1.36302 -0.52323,-1.17194 -2.54232,-1.36203 -3.29844,-0.3104 -0.28091,0.39073 -0.093,1.14298 0.41735,1.67171 1.44538,1.49689 0.36368,2.23136 -5.49379,3.73073 -2.98652,0.76448 -5.63352,1.84571 -5.88222,2.4028 -0.24872,0.55709 -1.33747,1.01285 -2.41945,1.01285 -3.83401,0 -5.92553,1.46064 -8.43744,5.89241 -2.39689,4.22876 -3.31147,5.00318 -4.29446,3.63611 z m 311.66013,-3.68661 c -0.0344,-0.7175 0.153,-1.11946 0.4159,-0.89331 0.26326,0.22607 0.29125,0.81317 0.0625,1.3045 -0.25293,0.54293 -0.44044,0.38167 -0.47844,-0.41119 z m -277.80801,-2.15605 c -4.3908,-1.65039 -3.246,-2.71649 2.96947,-2.76539 6.11244,-0.0483 7.0634,0.73653 3.24322,2.6761 -2.6796,1.36051 -2.82514,1.36261 -6.21269,0.0893 z m 103.55065,-12.35468 -2.75674,-0.99216 3.54863,-2.69677 c 4.51789,-3.433423 7.55054,-4.5851 12.94233,-4.915003 2.37363,-0.145226 4.70134,-0.468918 5.17259,-0.71923 0.53171,-0.282434 0.67789,-0.05442 0.38528,0.601069 -0.25944,0.580948 -0.70072,1.082972 -0.98077,1.115637 -0.28012,0.03444 -2.42392,0.183931 -4.76419,0.336835 -4.28409,0.279364 -9.07783,2.211243 -9.86576,3.97606 -0.23108,0.517797 -0.23529,1.549002 -0.008,2.291522 0.57166,1.87884 -0.45634,2.15942 -3.67175,1.00218 z m -212.86104,-1.5668 c -0.82898,-1.140937 -0.78509,-1.433985 0.26673,-1.780869 1.95341,-0.644257 3.3283,0.909529 1.89497,2.141499 -1.03125,0.88632 -1.28658,0.84372 -2.16164,-0.36063 z m 7.35815,-2.015362 c 0.26901,-0.374412 0.82471,-0.680592 1.23454,-0.680592 0.4098,0 0.7451,0.30618 0.7451,0.680592 0,0.3744 -0.55554,0.680592 -1.23451,0.680592 -0.67898,0 -1.01431,-0.306192 -0.74513,-0.680592 z m 14.45149,-3.173174 c 0.5444,-0.188945 1.43526,-0.188945 1.97965,0 0.5444,0.18891 0.0989,0.34335 -0.98981,0.34335 -1.08883,0 -1.53424,-0.154507 -0.98984,-0.34335 z m -27.51718,-0.931841 c 0,-0.362522 0.53451,-0.659252 1.18778,-0.659252 0.65326,0 1.18778,0.120465 1.18778,0.267497 0,0.147077 -0.53452,0.443795 -1.18778,0.65924 -0.65327,0.215366 -1.18778,0.09507 -1.18778,-0.267485 z m 3.95929,0.02303 c -0.92227,-0.512287 -0.69058,-0.66212 1.03654,-0.670216 1.2837,-0.0079 2.0174,0.277445 1.73499,0.670216 -0.60768,0.845023 -1.25015,0.845023 -2.77153,0 z m 10.49219,-1.439555 c -2.6535,-1.460556 -3.12118,-1.96354 -1.82587,-1.96354 0.75711,0 5.52606,3.35154 4.79534,3.370091 -0.21768,0.0034 -1.55402,-0.6274 -2.96947,-1.406551 z m -13.2637,-3.719504 -2.37562,-0.964833 2.71055,0.169388 c 1.49083,0.09304 2.85675,0.552167 3.0355,1.020115 0.40371,1.057002 -0.33609,1.007705 -3.37043,-0.224569 z"
         id="path3871"
         inkscape:connector-curvature="0" />
      <flowRoot
         transform="matrix(1.9567715,0,0,1.9567715,281.86305,-413.31836)"
         style="font-size:40px;font-style:normal;font-variant:normal;font-weight:normal;font-stretch:normal;line-height:125%;letter-spacing:0px;word-spacing:0px;fill:#4d4d4d;fill-opacity:1;stroke:none;font-family:Arial;-inkscape-font-specification:Arial"
         id="flowRoot3895"
         xml:space="preserve"><flowRegion
           id="flowRegion3897"><rect
             style="fill:#4d4d4d;fill-opacity:1"
             y="308.48584"
             x="171.11984"
             height="86.267029"
             width="326.68332"
             id="rect3899" /></flowRegion><flowPara
           style="font-style:normal;font-variant:normal;font-weight:bold;font-stretch:normal;fill:#4d4d4d;fill-opacity:1;font-family:Gudea;-inkscape-font-specification:Gudea Bold"
           id="flowPara3901">GDG Jaén</flowPara></flowRoot>    </g>
  </g>
</svg>
