<?xml version="1.0" encoding="UTF-8" standalone="no"?>
<!-- Created with Inkscape (http://www.inkscape.org/) -->

<svg
   xmlns:dc="http://purl.org/dc/elements/1.1/"
   xmlns:cc="http://creativecommons.org/ns#"
   xmlns:rdf="http://www.w3.org/1999/02/22-rdf-syntax-ns#"
   xmlns:svg="http://www.w3.org/2000/svg"
   xmlns="http://www.w3.org/2000/svg"
   xmlns:xlink="http://www.w3.org/1999/xlink"
   xmlns:sodipodi="http://sodipodi.sourceforge.net/DTD/sodipodi-0.dtd"
   xmlns:inkscape="http://www.inkscape.org/namespaces/inkscape"
   width="620"
   height="620"
   viewBox="0 0 620.00001 620.00001"
   id="svg2"
   version="1.1"
   inkscape:version="0.91 r13725"
   sodipodi:docname="LogoGDGProvincia.svg">
  <defs
     id="defs4">
    <radialGradient
       id="radialGradient4709"
       spreadMethod="pad"
       gradientTransform="matrix(28.634781,0,0,-28.634781,293.81836,644.97266)"
       gradientUnits="userSpaceOnUse"
       r="1"
       cy="0"
       cx="0"
       fy="0"
       fx="0">
      <stop
         id="stop4711"
         offset="0"
         style="stop-opacity:1;stop-color:#ffffff" />
      <stop
         id="stop4713"
         offset="1"
         style="stop-opacity:1;stop-color:#ffffff" />
    </radialGradient>
    <radialGradient
       inkscape:collect="always"
       xlink:href="#radialGradient4541"
       id="radialGradient3679"
       gradientUnits="userSpaceOnUse"
       gradientTransform="matrix(38.978638,-71.88063,-71.88063,-38.978622,271.85254,681.41016)"
       spreadMethod="pad"
       cx="0"
       cy="0"
       fx="0"
       fy="0"
       r="1" />
    <radialGradient
       id="radialGradient4541"
       spreadMethod="pad"
       gradientTransform="matrix(38.978638,-71.88063,-71.88063,-38.978622,271.85254,681.41016)"
       gradientUnits="userSpaceOnUse"
       r="1"
       cy="0"
       cx="0"
       fy="0"
       fx="0">
      <stop
         id="stop4543"
         offset="0"
         style="stop-opacity:1;stop-color:#ffcd4d" />
      <stop
         id="stop4545"
         offset="1"
         style="stop-opacity:1;stop-color:#f6c338" />
    </radialGradient>
    <radialGradient
       inkscape:collect="always"
       xlink:href="#radialGradient4561"
       id="radialGradient3681"
       gradientUnits="userSpaceOnUse"
       gradientTransform="matrix(38.977234,-71.878052,-71.878052,-38.977234,271.85254,681.40723)"
       spreadMethod="pad"
       cx="0"
       cy="0"
       fx="0"
       fy="0"
       r="1" />
    <radialGradient
       id="radialGradient4561"
       spreadMethod="pad"
       gradientTransform="matrix(38.977234,-71.878052,-71.878052,-38.977234,271.85254,681.40723)"
       gradientUnits="userSpaceOnUse"
       r="1"
       cy="0"
       cx="0"
       fy="0"
       fx="0">
      <stop
         id="stop4563"
         offset="0"
         style="stop-opacity:1;stop-color:#0da960" />
      <stop
         id="stop4565"
         offset="1"
         style="stop-opacity:1;stop-color:#03914b" />
    </radialGradient>
    <radialGradient
       inkscape:collect="always"
       xlink:href="#radialGradient4581"
       id="radialGradient3683"
       gradientUnits="userSpaceOnUse"
       gradientTransform="matrix(38.977127,-71.877869,-71.877869,-38.977127,271.85059,681.40723)"
       spreadMethod="pad"
       cx="0"
       cy="0"
       fx="0"
       fy="0"
       r="1" />
    <radialGradient
       id="radialGradient4581"
       spreadMethod="pad"
       gradientTransform="matrix(38.977127,-71.877869,-71.877869,-38.977127,271.85059,681.40723)"
       gradientUnits="userSpaceOnUse"
       r="1"
       cy="0"
       cx="0"
       fy="0"
       fx="0">
      <stop
         id="stop4583"
         offset="0"
         style="stop-opacity:1;stop-color:#4387fd" />
      <stop
         id="stop4585"
         offset="1"
         style="stop-opacity:1;stop-color:#4683ea" />
    </radialGradient>
    <radialGradient
       inkscape:collect="always"
       xlink:href="#radialGradient4601"
       id="radialGradient3685"
       gradientUnits="userSpaceOnUse"
       gradientTransform="matrix(38.974991,-71.873917,-71.873917,-38.974991,271.85449,681.40723)"
       spreadMethod="pad"
       cx="0"
       cy="0"
       fx="0"
       fy="0"
       r="1" />
    <radialGradient
       id="radialGradient4601"
       spreadMethod="pad"
       gradientTransform="matrix(38.974991,-71.873917,-71.873917,-38.974991,271.85449,681.40723)"
       gradientUnits="userSpaceOnUse"
       r="1"
       cy="0"
       cx="0"
       fy="0"
       fx="0">
      <stop
         id="stop4603"
         offset="0"
         style="stop-opacity:1;stop-color:#e04a3f" />
      <stop
         id="stop4605"
         offset="1"
         style="stop-opacity:1;stop-color:#cd372d" />
    </radialGradient>
    <clipPath
       id="clipPath4621"
       clipPathUnits="userSpaceOnUse">
      <path
         id="path4623"
         d="m 287.467,647.899 15.727,0 0,-23.891 -15.727,0 0,23.891 z"
         inkscape:connector-curvature="0" />
    </clipPath>
    <clipPath
       id="clipPath4625"
       clipPathUnits="userSpaceOnUse">
      <path
         id="path4627"
         d="m 302.49,629.507 -11.112,18.392 c 0.968,-1.608 0.968,-4.245 0,-5.86 l -3.911,-6.514 15.163,-11.517 c 0.788,1.629 0.761,3.997 -0.14,5.499"
         inkscape:connector-curvature="0" />
    </clipPath>
    <mask
       id="mask4639"
       height="1"
       width="1"
       y="0"
       x="0"
       maskUnits="userSpaceOnUse">
      <g
         id="g4641">
        <g
           id="g4643">
          <g
             id="g4645">
            <g
               id="g4647">
              <path
                 id="path4649"
                 style="fill:url(#linearGradient4633);stroke:none"
                 d="m -32768,32767 65535,0 0,-65534 -65535,0 0,65534 z"
                 inkscape:connector-curvature="0" />
            </g>
          </g>
        </g>
      </g>
    </mask>
    <linearGradient
       id="linearGradient4633"
       spreadMethod="pad"
       gradientTransform="matrix(-19.698547,0,0,19.698547,306.74023,635.9541)"
       gradientUnits="userSpaceOnUse"
       y2="0"
       x2="1"
       y1="0"
       x1="0">
      <stop
         id="stop4635"
         offset="0"
         style="stop-opacity:0.2;stop-color:#ffffff" />
      <stop
         id="stop4637"
         offset="1"
         style="stop-opacity:0.25000381;stop-color:#ffffff" />
    </linearGradient>
    <linearGradient
       inkscape:collect="always"
       xlink:href="#linearGradient4651"
       id="linearGradient3687"
       gradientUnits="userSpaceOnUse"
       gradientTransform="matrix(-19.698547,0,0,19.698547,306.74023,635.9541)"
       spreadMethod="pad"
       x1="0"
       y1="0"
       x2="1"
       y2="0" />
    <linearGradient
       id="linearGradient4651"
       spreadMethod="pad"
       gradientTransform="matrix(-19.698547,0,0,19.698547,306.74023,635.9541)"
       gradientUnits="userSpaceOnUse"
       y2="0"
       x2="1"
       y1="0"
       x1="0">
      <stop
         id="stop4653"
         offset="0"
         style="stop-opacity:1;stop-color:#231f20" />
      <stop
         id="stop4655"
         offset="1"
         style="stop-opacity:1;stop-color:#f1f2f2" />
    </linearGradient>
    <clipPath
       id="clipPath4679"
       clipPathUnits="userSpaceOnUse">
      <path
         id="path4681"
         d="m 273.449,679.973 40.739,0 0,-70 -40.739,0 0,70 z"
         inkscape:connector-curvature="0" />
    </clipPath>
    <clipPath
       id="clipPath4683"
       clipPathUnits="userSpaceOnUse">
      <path
         id="path4685"
         d="m 313.461,647.899 -17.505,29.144 c -0.967,1.608 -3.296,2.93 -5.172,2.93 l -7.918,0 -7.332,0 c -1.882,0 -2.629,-1.322 -1.661,-2.93 l 17.505,-29.144 c 0.968,-1.608 0.968,-4.245 0,-5.86 L 273.76,612.583 c -0.681,-1.456 0.026,-2.61 1.774,-2.61 l 7.328,0 7.922,0 c 1.876,0 4.205,1.315 5.172,2.929 l 13.631,22.685 3.874,6.452 c 0.969,1.615 0.969,4.252 0,5.86"
         inkscape:connector-curvature="0" />
    </clipPath>
    <mask
       id="mask4697"
       height="1"
       width="1"
       y="0"
       x="0"
       maskUnits="userSpaceOnUse">
      <g
         id="g4699">
        <g
           id="g4701">
          <g
             id="g4703">
            <g
               id="g4705">
              <path
                 id="path4707"
                 style="fill:url(#radialGradient4691);stroke:none"
                 d="m -32767,32767 65534,0 0,-65534 -65534,0 0,65534 z"
                 inkscape:connector-curvature="0" />
            </g>
          </g>
        </g>
      </g>
    </mask>
    <radialGradient
       id="radialGradient4691"
       spreadMethod="pad"
       gradientTransform="matrix(28.634781,0,0,-28.634781,293.81836,644.97266)"
       gradientUnits="userSpaceOnUse"
       r="1"
       cy="0"
       cx="0"
       fy="0"
       fx="0">
      <stop
         id="stop4693"
         offset="0"
         style="stop-opacity:0.09999237;stop-color:#ffffff" />
      <stop
         id="stop4695"
         offset="1"
         style="stop-opacity:0;stop-color:#ffffff" />
    </radialGradient>
    <radialGradient
       inkscape:collect="always"
       xlink:href="#radialGradient4709-4"
       id="radialGradient3689"
       gradientUnits="userSpaceOnUse"
       gradientTransform="matrix(28.634781,0,0,-28.634781,293.81836,644.97266)"
       spreadMethod="pad"
       cx="0"
       cy="0"
       fx="0"
       fy="0"
       r="1" />
    <radialGradient
       id="radialGradient4709-4"
       spreadMethod="pad"
       gradientTransform="matrix(28.634781,0,0,-28.634781,293.81836,644.97266)"
       gradientUnits="userSpaceOnUse"
       r="1"
       cy="0"
       cx="0"
       fy="0"
       fx="0">
      <stop
         id="stop4711-6"
         offset="0"
         style="stop-opacity:1;stop-color:#ffffff" />
      <stop
         id="stop4713-4"
         offset="1"
         style="stop-opacity:1;stop-color:#ffffff" />
    </radialGradient>
  </defs>
  <sodipodi:namedview
     id="base"
     pagecolor="#ffffff"
     bordercolor="#666666"
     borderopacity="1.0"
     inkscape:pageopacity="0.0"
     inkscape:pageshadow="2"
     inkscape:zoom="0.49497475"
     inkscape:cx="-176.12169"
     inkscape:cy="475.38415"
     inkscape:document-units="px"
     inkscape:current-layer="layer1"
     showgrid="false"
     units="px"
     inkscape:window-width="1920"
     inkscape:window-height="1005"
     inkscape:window-x="-9"
     inkscape:window-y="891"
     inkscape:window-maximized="1" />
  <metadata
     id="metadata7">
    <rdf:RDF>
      <cc:Work
         rdf:about="">
        <dc:format>image/svg+xml</dc:format>
        <dc:type
           rdf:resource="http://purl.org/dc/dcmitype/StillImage" />
        <dc:title></dc:title>
      </cc:Work>
    </rdf:RDF>
  </metadata>
  <g
     inkscape:label="Capa 1"
     inkscape:groupmode="layer"
     id="layer1"
     transform="translate(0,-432.36216)">
    <path
       inkscape:connector-curvature="0"
       id="path4161"
       d="m 145.33231,932.87783 c -5.83426,-3.79103 -8.6858,-7.25577 -12.55225,-15.25152 -0.98211,-2.03099 -2.19546,-3.94599 -2.69633,-4.25554 -0.50088,-0.30956 -1.9001,-2.60669 -3.10938,-5.10473 -1.66876,-3.4472 -2.89471,-4.68109 -5.08652,-5.11945 -3.60553,-0.72111 -3.76717,-3.15285 -0.41865,-6.29862 2.86792,-2.69426 2.57612,-3.56536 -1.80795,-5.39714 -1.7611,-0.73583 -4.76783,-3.49167 -6.68161,-6.12408 -1.91379,-2.63241 -6.53891,-7.98605 -10.27803,-11.89697 -5.08751,-5.32125 -6.74644,-7.73992 -6.59188,-9.61076 0.30439,-3.68438 -1.80349,-7.19518 -5.9149,-9.85164 -3.04725,-1.96888 -3.95772,-2.15301 -5.59381,-1.13125 -1.62767,1.0165 -2.17527,0.91801 -3.27758,-0.58949 C 80.59554,851.25121 80,849.87809 80,849.19528 c 0,-0.68282 -0.89733,-1.52629 -1.99408,-1.87438 -5.76035,-1.82827 -6.56704,-7.64868 -2.04775,-14.77487 1.62699,-2.5655 3.69518,-6.08976 4.59597,-7.83169 1.60819,-3.1099 1.58847,-3.20648 -1.09097,-5.34299 -2.6439,-2.10818 -2.6866,-2.29831 -1.37302,-6.11409 0.74566,-2.16603 2.60542,-5.4164 4.1328,-7.22304 5.0666,-5.99295 2.50206,-11.2152 -5.50756,-11.2152 -2.11177,0 -6.06165,-0.7268 -8.77749,-1.6151 C 63.55116,791.76909 63,791.2702 63,788.73433 c 0,-1.56996 0.9,-4.45685 2,-6.41531 1.60725,-2.86158 2,-5.41444 2,-12.99999 0,-7.58556 0.39275,-10.13842 2,-13 1.60606,-2.85945 2,-5.41444 2,-12.9714 0,-5.19502 -0.44796,-9.68742 -1,-10.0286 -0.55,-0.33992 -1,-1.87234 -1,-3.40538 0,-1.53304 -0.74497,-4.28068 -1.65549,-6.10586 -1.57168,-3.15051 -1.55901,-3.39877 0.25041,-4.90364 1.04825,-0.87182 2.71676,-2.84271 3.70779,-4.37975 0.99104,-1.53705 2.90336,-3.21342 4.24959,-3.72525 2.74151,-1.04232 3.00767,-2.11061 1.2336,-4.95134 -1.00845,-1.61478 -0.87836,-2.33237 0.76798,-4.23643 C 80.85593,697.79244 84,692.97 84,691.72419 c 0,-1.33676 2.18371,-3.7023 11.15296,-12.08165 l 3.93531,-3.67649 -1.59064,-3.82351 c -0.87485,-2.10293 -6.74471,-12.43102 -13.04414,-22.9513 -11.88884,-19.85485 -13.20366,-23.47835 -9.67736,-26.66961 0.97687,-0.88405 3.69625,-1.91441 6.04307,-2.28968 l 4.26696,-0.68231 -3.04308,-1.85061 C 79.31917,616.04253 79,615.33531 79,610.95617 c 0,-5.41196 -1.04277,-6.79575 -5.5,-7.29865 -2.62973,-0.29671 -3,-0.7289 -3,-3.50175 0,-1.73979 -0.3375,-3.50229 -0.75,-3.91666 -1.18822,-1.19363 -0.8721,-5.08023 0.5,-6.14735 1.95858,-1.52325 12.54531,0.0674 19.75,2.96746 5.10985,2.05682 8.22028,2.62023 14.5436,2.63437 4.42398,0.01 9.19423,0.45546 10.60055,0.99015 1.40633,0.53468 5.32924,0.98541 8.71759,1.00161 3.38834,0.0162 6.71809,0.38572 7.39944,0.82115 0.68135,0.43542 4.16382,1.10571 7.73882,1.48953 3.575,0.38382 7.96877,1.00301 9.76394,1.37597 1.79517,0.37297 4.49517,0.19595 6,-0.39338 1.50483,-0.58932 7.68606,-1.18319 13.73606,-1.3197 6.35728,-0.14344 12.12631,-0.7882 13.66856,-1.52761 2.72424,-1.30611 5.83144,-6.2673 5.83144,-9.31093 0,-3.39093 3.69803,-5.32865 10.876,-5.69887 5.22839,-0.26967 7.13532,0.006 8.10317,1.17243 1.60497,1.93386 4.41603,1.95875 5.99757,0.0531 1.07412,-1.29423 1.66248,-1.28509 4.87245,0.0756 6.60306,2.79912 12.26084,4.52654 13.46573,4.11134 0.65179,-0.22461 3.62427,0.42477 6.6055,1.44308 10.58579,3.61579 16.97108,0.11322 17.04362,-9.34907 0.0198,-2.58004 0.51312,-4.98589 1.09632,-5.34632 1.10268,-0.6815 6.88777,1.30666 7.00854,2.40862 0.87052,7.94308 2.35242,9.65915 9.64922,11.17396 3.02194,0.62735 6.86088,1.71519 8.53097,2.41741 2.66696,1.12137 3.77045,0.98914 9.06677,-1.08647 3.55835,-1.39451 7.34681,-3.8006 9.24206,-5.86973 1.7665,-1.92857 3.6791,-3.50649 4.25023,-3.50649 0.57112,0 2.42172,-1.16398 4.11243,-2.58663 2.33509,-1.96485 2.93493,-3.14087 2.49535,-4.8923 -0.32004,-1.27513 0.1396,-3.69468 1.02837,-5.41338 1.54161,-2.98112 1.86527,-3.1077 7.94652,-3.1077 4.52781,0 7.02099,0.51014 8.72432,1.78513 4.60625,3.44792 11.4385,6.1257 16.88486,6.61773 10.19769,0.92128 17.479,2.28342 21.3234,3.98903 4.30663,1.91069 6.96804,1.45416 10.6766,-1.83145 3.23766,-2.86835 13.56795,-9.56038 14.75818,-9.56038 0.50558,0 2.79366,2.8125 5.08461,6.25001 6.36996,9.5579 10.60125,15.06468 11.91078,15.50119 1.80079,0.60026 5.23846,-5.79363 5.24272,-9.75119 0.003,-2.83607 0.70662,-4.06081 3.70895,-6.45637 3.29283,-2.62737 4.44396,-2.94962 10.34355,-2.8956 5.19744,0.0476 7.28109,0.53597 9.59939,2.24998 3.21216,2.37485 5.8728,2.04175 6.62359,-0.82925 0.4734,-1.8103 5.87607,-5.06877 8.40421,-5.06877 0.75279,0 3.32148,-1.8 5.70819,-4 2.38672,-2.2 4.75797,-4 5.26945,-4 0.51148,0 2.91735,-2.025 5.34638,-4.5 4.79124,-4.88191 6.05852,-5.33934 8.07179,-2.9135 0.72417,0.87257 4.90922,3.39279 9.30011,5.60049 l 7.98343,4.01399 3.57234,-1.76278 c 1.96478,-0.96952 5.59733,-2.12271 8.07233,-2.56263 2.475,-0.43992 5.85,-1.04925 7.5,-1.35407 4.39791,-0.81248 8.28974,2.94351 8.39426,8.10127 0.1939,9.56879 0.14769,11.15073 -0.45713,15.64672 -1.01435,7.54021 2.73222,11.72569 11.02737,12.31923 10.82079,0.77426 13.7303,2.49356 11.71285,6.9214 -1.66139,3.64635 -1.46954,5.84872 0.75595,8.67796 1.76238,2.24051 1.83614,3.08548 0.83435,9.55758 -0.95593,6.17588 -0.88054,7.43311 0.57935,9.66119 0.92307,1.40877 2.91011,2.85399 4.41565,3.21159 5.42766,1.2892 6.23735,2.90072 6.23735,12.41411 0,6.52008 -0.37746,9.03583 -1.49485,9.96318 -1.15098,0.95523 -1.3481,2.4892 -0.85692,6.66839 0.57173,4.86446 0.37987,5.7084 -1.8487,8.13183 -1.36764,1.48723 -3.98281,5.06656 -5.81149,7.95406 -1.82868,2.8875 -3.89142,5.25 -4.58387,5.25 -1.58421,0 -5.40417,4.77328 -5.40417,6.75284 0,0.81572 -1.35,3.0207 -3,4.89994 -1.65,1.87925 -3,3.83 -3,4.33501 0,0.50501 -1.56395,1.35003 -3.47544,1.87782 -1.91149,0.52779 -5.71385,2.41006 -8.44969,4.18282 l -4.97425,3.2232 0.51363,6.61419 c 0.73756,9.49776 1.12696,10.81324 3.37481,11.40107 2.5774,0.674 2.74626,5.77894 0.26094,7.88865 -1.77983,1.51084 -7.33456,3.63603 -15,5.73886 l -4.25,1.16588 0,11.40084 c 0,8.03091 -0.36948,11.63534 -1.25,12.19417 -0.6875,0.43633 -8.48879,0.8576 -17.33619,0.93617 C 464.41411,760.57256 460,761.38748 460,764.19923 c 0,0.7204 -0.9,2.12431 -2,3.1198 -1.39847,1.2656 -2,3.07996 -2,6.03253 0,2.5934 -0.59784,4.71873 -1.5495,5.50854 -0.85223,0.70729 -2.38858,3.12489 -3.41412,5.37245 -1.02554,2.24756 -3.02826,5.17741 -4.4505,6.51078 -1.42223,1.33338 -2.58588,2.95113 -2.58588,3.59502 0,0.64388 -0.9,1.98518 -2,2.98067 -1.1,0.99549 -2,3.01492 -2,4.48762 0,1.90197 -1.11014,3.56978 -3.83216,5.75726 -3.4884,2.80335 -3.81555,3.47839 -3.64697,7.52505 0.10185,2.44499 0.5294,5.00239 0.95011,5.68311 0.4207,0.68072 0.22141,2.25322 -0.44288,3.49446 -0.97264,1.81739 -0.89825,3.16855 0.38205,6.9396 0.87442,2.57553 1.57342,5.22957 1.55334,5.89785 -0.0392,1.30473 -5.68196,5.09751 -12.96349,8.71343 -6.25194,3.10464 -8,4.87131 -8,8.08518 0,2.64262 -2.50808,6.33582 -3.87845,5.71108 -0.35547,-0.16205 -3.17141,-1.55714 -6.25764,-3.1002 l -5.61134,-2.80557 -3.5256,2.39254 c -7.12652,4.83619 -8.95771,5.14229 -14.36353,2.40101 -2.67489,-1.35644 -5.72068,-3.41489 -6.76843,-4.57433 -1.04774,-1.15945 -2.42605,-2.10809 -3.06291,-2.10809 -0.63685,0 -2.4513,-1.35 -4.0321,-3 -2.59361,-2.70714 -3.48468,-3 -9.12807,-3 -3.56374,0 -6.55378,0.48522 -6.95105,1.12802 -0.45975,0.7439 -2.64938,0.92397 -6.4301,0.52881 -6.23475,-0.65167 -8.99078,0.87638 -8.99078,4.98482 0,1.09129 -1.32602,3.25457 -2.9467,4.80729 -1.62069,1.55272 -3.08319,3.99941 -3.25,5.43709 -0.22362,1.92724 -0.96009,2.70189 -2.8033,2.94865 -1.375,0.18407 -2.9275,0.74657 -3.45,1.25 -0.5225,0.50342 -2.8299,0.91532 -5.12756,0.91532 -2.51599,0 -4.67878,0.60394 -5.43776,1.51845 -0.69311,0.83515 -2.82505,2.26103 -4.73764,3.16861 -2.74662,1.30336 -3.87069,1.40456 -5.34867,0.48155 -1.02918,-0.64274 -2.66484,-1.2015 -3.6348,-1.2417 -2.69064,-0.11151 -7.63248,-3.31968 -8.85235,-5.74682 -2.09627,-4.17089 -4.66828,-6.18009 -7.91122,-6.18009 -1.92003,0 -3.9106,-0.79623 -5,-2 -0.99549,-1.1 -2.66258,-2 -3.70465,-2 -4.65185,0 -11.79535,6.15086 -11.79535,10.1563 0,1.03762 -1.01766,2.35026 -2.26148,2.91697 -1.24381,0.56672 -3.00679,2.32905 -3.91774,3.91628 -0.91094,1.58723 -3.60578,3.87446 -5.98852,5.08274 -2.38274,1.20828 -5.81042,3.48631 -7.61706,5.06229 -1.80663,1.57598 -4.34499,2.86542 -5.64079,2.86542 -1.2958,0 -4.31764,0.89012 -6.71521,1.97804 -2.39756,1.08792 -5.16492,1.98792 -6.14969,2 -2.00499,0.0246 -7.54099,3.64449 -9.4443,6.17546 -0.68389,0.90943 -3.73002,2.43563 -6.76917,3.39156 -5.12658,1.61251 -5.65674,1.61948 -7.33962,0.0965 -3.41669,-3.09206 -7.1639,-1.35752 -7.14741,3.30844 0.006,1.64125 -1.09038,3.45384 -3.07595,5.08623 -2.84833,2.34169 -2.98978,2.74517 -1.844,5.2599 1.09228,2.39729 0.98156,2.9998 -0.92404,5.02821 -1.19076,1.26751 -2.16502,3.072 -2.16502,4.00998 0,0.93798 -1.14606,3.5209 -2.54679,5.73981 -2.4674,3.90861 -2.67793,4.01472 -6.75302,3.40362 -3.5004,-0.52492 -5.18763,-0.11451 -10.05475,2.44574 -8.02903,4.22352 -11.73813,4.05745 -19.31313,-0.86468 z M 481,751.81903 c 0,-0.55 -0.9,-1 -2,-1 -1.1,0 -2,0.45 -2,1 0,0.55 0.9,1 2,1 1.1,0 2,-0.45 2,-1 z m 9,-9.57946 c 0,-3.50587 -0.0668,-3.566 -3.25,-2.92534 -5.75069,1.15741 -6.75,1.61224 -6.75,3.07219 0,0.94647 1.10285,1.43781 3.25,1.44792 1.7875,0.008 3.925,0.45153 4.75,0.98469 2.06484,1.3344 2,1.41802 2,-2.57946 z"
       style="fill:#e6e6e6" />
    <g
       id="g4388"
       transform="translate(28.883832,13.147275)">
      <g
         transform="translate(0,-8.8284681)"
         id="g4380">
        <text
           sodipodi:linespacing="125%"
           id="text3402"
           y="837.34088"
           x="372.44815"
           style="font-style:normal;font-variant:normal;font-weight:normal;font-stretch:normal;font-size:117.04569244px;line-height:125%;font-family:Roboto;-inkscape-font-specification:Roboto;text-align:center;letter-spacing:0px;word-spacing:0px;text-anchor:middle;fill:#4c4c4c;fill-opacity:1;stroke:none"
           xml:space="preserve"><tspan
             style="font-style:normal;font-variant:normal;font-weight:normal;font-stretch:normal;font-family:'Roboto Bk';-inkscape-font-specification:'Roboto Bk';fill:#4c4c4c;fill-opacity:1"
             y="837.34088"
             x="372.44815"
             id="tspan3404"
             sodipodi:role="line">Jaén</tspan></text>
        <g
           id="g4187"
           transform="matrix(1.1947621,0,0,1.1947621,456.66979,-118.99561)">
          <path
             inkscape:connector-curvature="0"
             d="m -136.6424,661.54217 28.53838,0 0,35.67298 c -7.75222,2.65979 -16.26154,3.97673 -25.56779,3.97673 -10.18488,0 -18.06063,-2.95266 -23.63323,-8.86196 -5.57459,-5.9093 -8.34395,-14.35487 -8.34395,-25.31477 0,-10.66503 3.03833,-18.96515 9.1389,-24.9143 6.09459,-5.95313 14.62582,-8.88587 25.60764,-8.88587 4.16799,0 8.08494,0.37655 11.77278,1.1715 3.71373,0.77702 6.93935,1.76124 9.68679,2.95664 l -5.68018,14.02015 c -4.75773,-2.35097 -9.99561,-3.52247 -15.6977,-3.52247 -5.19804,0 -9.24051,1.71541 -12.08957,5.09443 -2.87097,3.39496 -4.27558,8.23238 -4.27558,14.54215 0,6.18424 1.2771,10.89814 3.87711,14.14367 2.55618,3.24952 6.26394,4.84539 11.12726,4.84539 2.66178,0 5.11237,-0.23311 7.33383,-0.76108 l 0,-10.35024 -11.79469,0 0,-13.81295 z"
             style="fill:#4c4c4c;fill-opacity:1;fill-rule:nonzero;stroke:none"
             id="path3901" />
          <path
             inkscape:connector-curvature="0"
             d="m -42.200558,665.8207 c 0,11.02167 -3.01641,19.53298 -9.11299,25.50603 -6.05674,5.97107 -14.603908,8.94764 -25.607642,8.94764 l -21.393825,0 0,-66.13996 22.882108,0 c 10.603269,0 18.797799,2.72753 24.577599,8.15269 5.78577,5.40922 8.65475,13.26704 8.65475,23.5336 m -18.54476,0.62759 c 0,-6.07666 -1.19143,-10.56143 -3.58025,-13.49416 -2.392812,-2.91282 -6.058731,-4.38118 -10.939981,-4.38118 l -5.198035,0 0,37.05169 3.984695,0 c 5.445085,0 9.425795,-1.57396 11.942131,-4.73581 2.53626,-3.124 3.79144,-7.96541 3.79144,-14.44054"
             style="fill:#4c4c4c;fill-opacity:1;fill-rule:nonzero;stroke:none"
             id="path3905" />
          <path
             inkscape:connector-curvature="0"
             d="m -7.495778,661.54217 28.56429,0 0,35.67298 c -7.75621,2.65979 -16.28146,3.97673 -25.5658,3.97673 -10.18488,0 -18.06661,-2.95266 -23.6392,-8.86196 -5.55268,-5.9093 -8.33798,-14.35487 -8.33798,-25.31477 0,-10.66503 3.03634,-18.96515 9.13292,-24.9143 6.07865,-5.95313 14.62582,-8.88587 25.60964,-8.88587 4.15005,0 8.08893,0.37655 11.79668,1.1715 3.66791,0.77702 6.89751,1.76124 9.63898,2.95664 l -5.65428,14.02015 c -4.75573,-2.35097 -9.99959,-3.52247 -15.69571,-3.52247 -5.22195,0 -9.2425,1.71541 -12.11348,5.09443 -2.82913,3.39496 -4.25565,8.23238 -4.25565,14.54215 0,6.18424 1.2771,10.89814 3.85519,14.14367 2.5781,3.24952 6.28785,4.84539 11.14719,4.84539 2.66177004,0 5.11634,-0.23311 7.3398,-0.76108 l 0,-10.35024 -11.82259,0 0,-13.81295 z"
             style="fill:#4c4c4c;fill-opacity:1;fill-rule:nonzero;stroke:none"
             id="path3909" />
        </g>
      </g>
      <g
         transform="matrix(1.9819828,0,0,1.9819828,-4551.8471,614.13862)"
         id="g3817">
        <g
           transform="matrix(2.0242899,0,0,-2.0242899,1777.1483,1363.6725)"
           id="g3819">
          <g
             id="g3821">
            <path
               id="path3823"
               style="fill:url(#radialGradient3679);stroke:none"
               d="m 282.862,609.972 7.923,0 c 1.875,0 4.204,1.316 5.171,2.931 l 0,0 6.673,11.105 c 0.789,1.629 0.762,3.997 -0.139,5.499 l 0,0 -3.941,6.523 -15.687,-26.058 z"
               inkscape:connector-curvature="0" />
          </g>
        </g>
        <g
           transform="matrix(2.0242899,0,0,-2.0242899,1777.1483,1363.6725)"
           id="g3825">
          <g
             id="g3827">
            <path
               id="path3829"
               style="fill:url(#radialGradient3681);stroke:none"
               d="M 291.378,642.039 273.76,612.583 c -0.681,-1.456 0.026,-2.611 1.774,-2.611 l 0,0 7.328,0 15.687,26.058 -7.171,11.869 c 0.968,-1.608 0.968,-4.245 0,-5.86"
               inkscape:connector-curvature="0" />
          </g>
        </g>
        <g
           transform="matrix(2.0242899,0,0,-2.0242899,1777.1483,1363.6725)"
           id="g3831">
          <g
             id="g3833">
            <path
               id="path3835"
               style="fill:url(#radialGradient3683);stroke:none"
               d="m 275.534,679.972 c -1.882,0 -2.629,-1.321 -1.661,-2.929 l 0,0 28.617,-47.536 c 0.901,-1.502 0.928,-3.87 0.139,-5.499 l 0,0 6.957,11.579 -26.72,44.385 -7.332,0 z"
               inkscape:connector-curvature="0" />
          </g>
        </g>
        <g
           transform="matrix(2.0242899,0,0,-2.0242899,1777.1483,1363.6725)"
           id="g3837">
          <g
             id="g3839">
            <path
               id="path3841"
               style="fill:url(#radialGradient3685);stroke:none"
               d="m 282.866,679.972 26.72,-44.385 3.875,6.452 c 0.968,1.615 0.968,4.252 0,5.86 l 0,0 -17.505,29.144 c -0.967,1.608 -3.296,2.929 -5.171,2.929 l 0,0 -7.919,0 z"
               inkscape:connector-curvature="0" />
          </g>
        </g>
        <g
           transform="matrix(2.0242899,0,0,-2.0242899,1777.1483,1363.6725)"
           id="g3843">
          <g
             id="g3845" />
          <g
             id="g3847">
            <g
               id="g3849"
               clip-path="url(#clipPath4621)">
              <g
                 id="g3851">
                <g
                   id="g3853"
                   clip-path="url(#clipPath4625)">
                  <g
                     id="g3855">
                    <g
                       id="g3857" />
                    <g
                       id="g3859"
                       mask="url(#mask4639)">
                      <g
                         id="g3861">
                        <path
                           id="path3863"
                           style="fill:url(#linearGradient3687);stroke:none"
                           d="m 302.49,629.507 -11.112,18.392 c 0.968,-1.608 0.968,-4.245 0,-5.86 l -3.911,-6.514 15.163,-11.517 c 0.788,1.629 0.761,3.997 -0.14,5.499"
                           inkscape:connector-curvature="0" />
                      </g>
                    </g>
                  </g>
                </g>
              </g>
            </g>
          </g>
        </g>
        <g
           transform="matrix(2.0242899,0,0,-2.0242899,1777.1483,1363.6725)"
           id="g3865">
          <g
             id="g3867" />
          <g
             id="g3869">
            <g
               id="g3871"
               clip-path="url(#clipPath4679)">
              <g
                 id="g3873">
                <g
                   id="g3875"
                   clip-path="url(#clipPath4683)">
                  <g
                     id="g3877">
                    <g
                       id="g3879" />
                    <g
                       id="g3881"
                       mask="url(#mask4697)">
                      <g
                         id="g3883">
                        <path
                           id="path3885"
                           style="fill:url(#radialGradient3689);stroke:none"
                           d="m 313.461,647.899 -17.505,29.144 c -0.967,1.608 -3.296,2.93 -5.172,2.93 l -7.918,0 -7.332,0 c -1.882,0 -2.629,-1.322 -1.661,-2.93 l 17.505,-29.144 c 0.968,-1.608 0.968,-4.245 0,-5.86 L 273.76,612.583 c -0.681,-1.456 0.026,-2.61 1.774,-2.61 l 7.328,0 7.922,0 c 1.876,0 4.205,1.315 5.172,2.929 l 13.631,22.685 3.874,6.452 c 0.969,1.615 0.969,4.252 0,5.86"
                           inkscape:connector-curvature="0" />
                      </g>
                    </g>
                  </g>
                </g>
              </g>
            </g>
          </g>
        </g>
      </g>
    </g>
  </g>
</svg>
